<?xml version="1.0" encoding="UTF-8" standalone="no"?>
<!-- Created with Inkscape (http://www.inkscape.org/) -->

<svg
   width="95.694mm"
   height="90.129997mm"
   viewBox="0 0 95.694 90.13"
   version="1.1"
   id="svg5"
   xml:space="preserve"
   inkscape:version="1.2 (dc2aeda, 2022-05-15)"
   sodipodi:docname="cat-icon.svg"
   xmlns:inkscape="http://www.inkscape.org/namespaces/inkscape"
   xmlns:sodipodi="http://sodipodi.sourceforge.net/DTD/sodipodi-0.dtd"
   xmlns="http://www.w3.org/2000/svg"
   xmlns:svg="http://www.w3.org/2000/svg"><sodipodi:namedview
     id="namedview7"
     pagecolor="#ffffff"
     bordercolor="#000000"
     borderopacity="0.25"
     inkscape:showpageshadow="2"
     inkscape:pageopacity="0.0"
     inkscape:pagecheckerboard="0"
     inkscape:deskcolor="#d1d1d1"
     inkscape:document-units="mm"
     showgrid="false"
     inkscape:zoom="1.6261099"
     inkscape:cx="150.05136"
     inkscape:cy="209.39544"
     inkscape:window-width="1920"
     inkscape:window-height="1035"
     inkscape:window-x="0"
     inkscape:window-y="23"
     inkscape:window-maximized="1"
     inkscape:current-layer="layer1" /><defs
     id="defs2" /><g
     inkscape:label="Layer 1"
     inkscape:groupmode="layer"
     id="layer1"
     transform="translate(-54.736789,-106.27856)"><g
       id="g291"
       transform="translate(12.512707,94.98263)"><path
         style="fill:#728d70;stroke-width:0.264583"
         d="m 67.412185,93.545477 c -43.968634,-46.152458 0.01591,-68.715734 2.258296,-65.432838 -0.240835,0.26612 -0.307393,0.483855 -0.147905,0.483855 0.159485,0 0.363559,-0.119063 0.453496,-0.264584 0.08994,-0.145521 0.499104,-0.264583 0.909259,-0.264583 0.410157,0 0.899853,-0.185695 1.088213,-0.412656 0.251804,-0.303405 0.803256,-0.405262 2.082916,-0.384731 1.984875,0.03185 4.059412,-0.299253 4.579509,-0.730896 0.225811,-0.187405 0.493964,-0.204924 0.741685,-0.04845 0.425104,0.268511 2.091011,0.06294 2.491439,-0.307437 0.354378,-0.327784 1.468437,-0.28991 1.468437,0.04992 0,0.162239 0.22573,0.21077 0.530471,0.114049 0.352558,-0.111898 0.583894,-0.02914 0.689764,0.246753 0.280091,0.729899 0.631849,0.44546 0.631849,-0.510923 0,-0.754422 0.09961,-0.926042 0.537469,-0.926042 0.295611,0 0.607367,0.182142 0.692793,0.40476 0.100573,0.262093 0.337643,0.346893 0.672584,0.240587 0.328184,-0.104161 0.636146,-0.0016 0.842484,0.28059 0.29686,0.405978 0.355745,0.407981 0.67528,0.02297 0.317995,-0.383162 0.431467,-0.371483 1.23884,0.127501 1.017717,0.628984 1.955133,0.484912 1.955133,-0.300487 0,-0.281235 0.119063,-0.511336 0.264584,-0.511336 0.14552,0 0.264583,0.297656 0.264583,0.661458 0,0.80671 0.186439,0.827113 0.955548,0.104571 0.612185,-0.575117 1.161119,-0.492087 1.161119,0.175627 0,0.209693 0.119062,0.38126 0.264583,0.38126 0.145521,0 0.264583,-0.171567 0.264583,-0.38126 0,-0.787765 0.595477,-0.698958 1.521318,0.226884 0.648422,0.648422 1.04367,0.870221 1.225939,0.687953 0.447106,-0.447105 0.700526,-0.310249 1.075094,0.58059 l 0.357225,0.849584 0.410252,-0.981876 c 0.478125,-1.144309 0.878175,-1.248437 1.231005,-0.320416 0.28081,0.738584 0.52854,0.818656 1.02323,0.330729 0.26865,-0.264982 0.40331,-0.238683 0.67739,0.132291 0.18815,0.254662 0.5303,0.463021 0.76033,0.463021 0.23003,0 0.49481,0.123906 0.58841,0.275346 0.0936,0.15144 0.40702,0.200173 0.6965,0.108295 0.34805,-0.110468 0.64778,-0.0021 0.88488,0.319967 0.37617,0.510959 0.36608,0.520548 0.74033,-0.703608 0.0727,-0.237709 0.3534,0.132379 0.69998,0.922798 l 0.57865,1.319673 0.48114,-0.637854 0.48113,-0.637855 0.43414,0.839536 c 0.23878,0.461744 0.5527,0.839536 0.69761,0.839536 0.1449,0 0.39397,0.286454 0.55349,0.636564 0.37731,0.828104 1.47401,1.05945 1.83397,0.386869 0.39346,-0.735191 0.75649,-0.60336 1.189,0.431775 0.2128,0.509323 0.54546,0.926041 0.73924,0.926041 0.19377,0 0.56781,0.238125 0.8312,0.529167 0.26339,0.291042 0.76183,0.529167 1.10765,0.529167 0.34581,0 0.70462,0.197699 0.79734,0.439332 0.14462,0.376869 0.19842,0.358687 0.37842,-0.127885 0.25136,-0.679496 0.92273,-0.517809 1.17704,0.28347 0.0953,0.300318 0.46784,0.818996 0.82782,1.152618 0.66572,0.616964 0.62529,1.462837 -0.0434,0.907883 -0.24476,-0.203128 -0.42966,-0.170511 -0.66914,0.118035 -0.31713,0.38213 -0.28891,0.781052 0.12671,1.790609 0.13573,0.329695 0.0663,0.463021 -0.24118,0.463021 -0.26877,0 -0.49215,-0.301765 -0.59165,-0.799256 -0.18511,-0.925546 -0.62067,-1.326723 -0.62067,-0.571672 0,0.281811 -0.18128,0.662834 -0.40285,0.84672 -0.23256,0.193008 -0.33686,0.542226 -0.24675,0.826145 0.27186,0.856573 -0.26407,0.532559 -1.00231,-0.605967 -0.76043,-1.172768 -0.74104,-1.548053 0.08,-1.548053 0.28245,0 0.51355,-0.110558 0.51355,-0.245685 0,-0.431849 -0.81372,-1.077232 -1.3582,-1.077232 -0.28966,0 -1.14436,-0.284568 -1.89933,-0.632374 -0.75498,-0.347806 -1.67034,-0.692928 -2.03414,-0.766939 -0.3638,-0.07401 -1.01864,-0.257016 -1.45521,-0.406678 -1.72666,-0.591931 -4.5871,-1.1194 -6.28068,-1.158163 -1.8941,-0.04335 -2.2411,0.07296 -1.88388,0.631447 0.12254,0.191583 0.22874,0.824582 0.236,1.406665 0.007,0.582084 0.23638,1.39509 0.50917,1.80668 0.45575,0.68765 0.51778,0.709376 0.76487,0.267857 0.35118,-0.627517 1.27451,-1.393122 1.69359,-1.404276 0.19,-0.0051 0.33072,0.315163 0.33072,0.752551 0,0.95598 0.54645,1.427465 1.40475,1.212047 0.54474,-0.136723 0.72482,-0.03415 1.01951,0.580684 0.40232,0.839417 1.48648,1.276265 1.17903,0.475077 -0.0979,-0.255248 -0.0468,-0.861999 0.11374,-1.34833 0.24663,-0.747294 0.36725,-0.843872 0.77884,-0.623595 0.26786,0.143354 0.67658,0.831373 0.90828,1.528934 0.32327,0.973283 0.60139,1.336286 1.1957,1.56061 0.95354,0.359923 1.1864,-0.02061 0.73859,-1.206982 -0.16669,-0.441616 -0.22708,-0.878932 -0.13419,-0.971819 0.2748,-0.274798 0.73325,0.14129 0.73325,0.665487 0,0.499992 0.86073,1.451994 2.46191,2.722997 l 0.91492,0.726257 0.38432,-0.578813 c 0.37642,-0.56692 0.40408,-0.569439 1.34585,-0.122536 0.52885,0.250952 1.08528,0.660852 1.23651,0.910891 0.20132,0.332822 0.22989,0.08249 0.10665,-0.93445 -0.21428,-1.768255 0.0977,-1.781064 1.33786,-0.05491 0.52717,0.733782 1.16342,1.397317 1.41388,1.474523 0.25047,0.07721 0.68478,0.264882 0.96514,0.417063 0.39977,0.216998 0.58549,0.173087 0.86089,-0.203531 0.46765,-0.639564 0.84558,-0.24329 1.1777,1.234882 0.14163,0.630322 0.40009,1.31817 0.57437,1.528551 0.26408,0.318767 0.33893,0.25687 0.44917,-0.37146 0.18017,-1.026816 0.56662,-0.924734 1.15018,0.303816 0.26879,0.565886 0.795,1.354127 1.16934,1.751648 0.5427,0.576302 0.75662,0.659701 1.05561,0.411559 0.52666,-0.437084 1.97823,1.32261 2.6655,3.231301 0.96233,2.672548 1.23313,3.304878 1.56614,3.65692 0.1819,0.192294 0.33073,0.530704 0.33073,0.752017 0,0.221313 0.22235,0.685056 0.49411,1.030539 0.76286,0.969825 1.11832,6.891025 0.70277,11.706624 -0.19759,2.289794 -1.34431,5.065027 -3.6838,8.915358 -0.4421,0.727604 -1.53777,2.289053 -2.43482,3.469886 -0.89705,1.180833 -1.95975,2.879516 -2.36155,3.77485 -0.51721,1.152506 -0.90849,1.672545 -1.33991,1.780823 -0.81735,0.205142 -1.48162,1.263814 -1.28487,2.047737 0.15373,0.612492 -0.41207,1.494412 -0.95874,1.494412 -0.13513,0 -0.008,0.238125 0.28348,0.529167 0.32426,0.32426 0.52917,0.881943 0.52917,1.440206 0,0.644406 0.17422,1.033505 0.59531,1.329489 0.54733,0.384725 -0.0657,0.412589 -7.60677,0.345731 -4.51115,-0.03999 -8.42998,-0.182248 -8.70851,-0.316119 -0.36618,-0.175993 -0.45345,-0.157676 -0.31512,0.06615 0.14038,0.227132 -0.41162,0.309547 -2.07326,0.309547 -1.24551,0 -2.26457,-0.07617 -2.26457,-0.16927 0,-0.0931 0.20836,-0.328959 0.46302,-0.524137 0.76946,-0.58973 -0.0149,-0.831437 -2.74633,-0.846304 -2.935691,-0.01598 -3.25137,-0.09734 -4.346351,-1.120206 -0.958657,-0.895522 -0.933694,-1.445287 0.132228,-2.91205 1.771915,-2.438246 2.03631,-2.885696 1.867009,-3.159635 -0.100439,-0.162513 -0.45624,-0.259623 -0.790668,-0.215797 -0.392052,0.05138 -0.794361,-0.150402 -1.132523,-0.568013 -0.471193,-0.581898 -0.616008,-0.619598 -1.425591,-0.371131 -0.618378,0.189786 -1.926299,0.19422 -4.168452,0.01413 l -3.267332,-0.262432 -0.497898,0.635651 c -0.488426,0.623564 -0.505399,0.625858 -0.892453,0.120708 -0.306101,-0.3995 -0.465486,-0.444019 -0.710935,-0.19857 -0.549556,0.549555 0.680725,2.549181 2.830219,4.600072 1.092332,1.042223 1.985126,2.022862 1.983989,2.179196 -0.0011,0.159078 -0.604076,0.306525 -1.369182,0.334841 -0.921158,0.03409 -1.616985,0.235331 -2.133113,0.616923 -0.421302,0.311481 -1.117645,0.610831 -1.547432,0.665224 -1.187368,0.15027 -1.541349,0.464404 -0.766371,0.680106 0.655921,0.182565 0.655553,0.183478 -0.08443,0.209738 -0.408771,0.0145 -0.688086,0.11567 -0.620702,0.224811 0.06739,0.10914 -0.162925,0.215559 -0.5118,0.236484 -0.348874,0.02093 -0.588573,-0.03861 -0.532664,-0.132291 0.05591,-0.09369 -0.843976,-0.198652 -1.999748,-0.23326 -1.331523,-0.03987 -2.042223,0.03283 -1.939874,0.198438 0.08884,0.143748 0.04247,0.261358 -0.103056,0.261358 -0.14552,0 -0.346022,-0.131773 -0.445561,-0.29283 -0.126161,-0.204134 -0.249875,-0.1841 -0.40844,0.06615 -0.147457,0.232719 -0.228883,0.249761 -0.23151,0.04845 -0.0026,-0.196985 -0.430329,-0.294026 -1.169919,-0.265403 -0.641225,0.02482 -1.117311,0.123684 -1.057968,0.219704 0.05935,0.09602 -0.130389,0.112268 -0.421632,0.03611 -0.581205,-0.151987 -0.726313,-0.600689 -0.198803,-0.614728 0.432412,-0.01151 1.639697,-1.019384 1.449227,-1.209852 -0.0809,-0.0809 -0.939785,0.266483 -1.908631,0.771962 -0.996635,0.519975 -1.609651,0.97976 -1.411745,1.058859 0.563219,0.225111 -0.335288,0.162629 -1.105413,-0.07687 -0.596482,-0.185497 -0.44704,-0.305541 1.521354,-1.222063 1.200547,-0.558999 2.182813,-1.154457 2.182813,-1.32324 0,-0.545142 -1.949114,-0.870153 -2.877461,-0.479813 -0.454689,0.191182 -0.826706,0.469669 -0.826706,0.61886 0,0.374332 -1.296146,1.192173 -1.525659,0.96266 -0.102426,-0.102426 0.109651,-0.415335 0.471278,-0.695352 0.507469,-0.392948 0.577623,-0.561141 0.307438,-0.737076 -0.246163,-0.160292 0.08179,-0.40323 1.104916,-0.818488 2.278531,-0.924785 2.27633,-1.603288 -0.0052,-1.603288 -0.776111,0 -1.411111,-0.119062 -1.411111,-0.264583 0,-0.145521 0.68461,-0.266407 1.521355,-0.268634 0.836744,-0.0021 1.687531,-0.109276 1.890638,-0.237882 0.555046,-0.351451 0.145891,-1.067271 -0.798145,-1.396365 l -0.832712,-0.290285 0.577546,-0.435644 c 0.380193,-0.286782 0.518072,-0.590635 0.403494,-0.88922 -0.224499,-0.585039 1.697676,-1.492364 5.072645,-2.394442 2.931901,-0.783656 3.370236,-1.00017 4.788551,-2.365311 l 1.113994,-1.072232 0.268475,0.706143 c 0.147662,0.38838 0.198962,1.053714 0.114001,1.478524 -0.137551,0.687758 -0.03205,0.849667 0.963036,1.477833 0.818867,0.516929 1.196004,0.626967 1.411213,0.411757 0.215213,-0.215212 0.196091,-0.449998 -0.07155,-0.878551 -0.200884,-0.321667 -0.389207,-1.370354 -0.418494,-2.330416 -0.02929,-0.960059 -0.176794,-1.966322 -0.327792,-2.236142 -0.202499,-0.361844 -0.149315,-0.842105 0.202668,-1.830167 0.262467,-0.736775 0.681125,-2.148033 0.930352,-3.136133 0.24923,-0.988097 0.719341,-2.188808 1.044699,-2.668249 0.325356,-0.479438 0.670359,-1.291759 0.766673,-1.805154 0.230095,-1.226511 0.787215,-1.676448 2.528856,-2.042332 1.137221,-0.238908 1.504675,-0.231307 1.756558,0.03633 0.175181,0.186142 0.934855,1.767192 1.688166,3.513442 3.279143,7.601384 4.171733,8.727599 8.610976,10.864797 2.43354,1.171585 5.04995,1.700202 8.42493,1.702165 0.82511,5.29e-4 1.49356,0.167796 1.87776,0.470008 0.53375,0.419849 0.95605,0.448234 4.01048,0.269561 5.27707,-0.30869 6.1298,-0.446083 6.90453,-1.112478 0.9345,-0.803825 0.59918,-1.213845 -0.99269,-1.213845 -1.19185,0 -1.66156,-0.27899 -1.07747,-0.639979 0.1264,-0.07812 0.30978,-0.650698 0.4075,-1.272387 0.26099,-1.660403 0.99568,-3.974994 1.42489,-4.488997 0.20586,-0.246534 0.62975,-0.484659 0.94197,-0.529167 0.49135,-0.07005 0.55511,-0.223245 0.47419,-1.139261 -0.0514,-0.582084 -0.11095,-2.334173 -0.13229,-3.893532 -0.0319,-2.332747 0.0396,-2.913555 0.40371,-3.277328 0.24551,-0.245308 0.63142,-0.36963 0.86688,-0.279275 0.49423,0.189653 1.30358,1.964068 1.58377,3.472241 0.1072,0.577056 0.38459,1.410493 0.61641,1.852083 0.23182,0.441592 0.48993,1.209834 0.57358,1.707205 0.19617,1.166382 0.63879,1.293842 1.45071,0.417761 0.67031,-0.723272 0.70568,-0.838956 1.21337,-3.967905 0.16528,-1.018646 0.42218,-2.247522 0.57089,-2.730834 0.21901,-0.711771 0.18715,-0.97073 -0.16766,-1.362794 -0.28822,-0.318479 -0.34166,-0.543621 -0.15624,-0.65822 0.4628,-0.286025 0.32667,-0.660977 -0.52108,-1.43528 -0.7666,-0.700175 -0.87873,-1.618081 -0.19768,-1.618081 0.3126,0 0.0283,-1.853271 -0.34292,-2.235729 -0.1342,-0.138245 -0.244,-0.449609 -0.244,-0.691922 0,-0.242314 -0.24586,-0.753131 -0.54636,-1.135155 -0.3005,-0.382022 -0.46788,-0.821563 -0.37196,-0.97676 0.27323,-0.4421 -0.0906,-1.508408 -0.71241,-2.087668 -0.4771,-0.444492 -0.5116,-0.592831 -0.21967,-0.944579 0.26231,-0.316063 0.27201,-0.491574 0.04,-0.723566 -0.16846,-0.168458 -0.30628,-0.5206 -0.30628,-0.782537 0,-0.577266 -0.41363,-0.629809 -0.62485,-0.07937 -0.0838,0.218281 -0.28081,0.396875 -0.43787,0.396875 -0.35271,0 -1.51294,-1.28923 -1.7263,-1.918229 -0.0957,-0.282213 -0.42609,-0.463021 -0.846,-0.463021 -0.37892,0 -0.91334,-0.203076 -1.1876,-0.451276 -0.40859,-0.369769 -0.59156,-0.393258 -1.01302,-0.130051 -0.60497,0.377812 -0.63805,0.169034 -0.11749,-0.74159 0.48335,-0.845534 0.48694,-1.058333 0.0178,-1.058333 -0.20847,0 -0.45462,0.238125 -0.54699,0.529166 -0.20388,0.642356 -0.87871,0.695794 -1.11193,0.08805 -0.0931,-0.242612 -0.63799,-0.895993 -1.21087,-1.451954 l -1.0416,-1.010838 -0.64681,0.508783 c -0.6393,0.502873 -0.65742,0.502531 -1.55895,-0.02939 -0.50168,-0.295995 -0.91214,-0.627134 -0.91214,-0.735859 0,-0.233304 -1.79463,-0.160274 -2.03783,0.08292 -0.30604,0.306041 -0.59335,0.172138 -0.4473,-0.208468 0.17887,-0.466135 -0.62616,-1.741167 -1.09934,-1.741167 -0.19174,0 -0.42475,-0.239853 -0.51779,-0.533009 -0.21573,-0.679696 -0.66024,-0.421208 -0.66024,0.383935 0,0.337396 -0.17859,0.761666 -0.39687,0.942824 -0.40717,0.33792 -0.49299,0.213529 -0.41072,-0.595313 0.0669,-0.65759 -0.68853,-0.576437 -0.86353,0.09277 -0.20166,0.771142 -0.79223,0.344734 -0.63824,-0.460824 0.27748,-1.451518 -1.19396,-0.724956 -1.63953,0.809559 -0.18059,0.621979 -0.24238,0.679246 -0.26058,0.241535 -0.0148,-0.355214 -0.37657,-0.791715 -0.9499,-1.146059 -0.50933,-0.31478 -0.92605,-0.685413 -0.92605,-0.823632 0,-0.138221 -0.20835,-0.325202 -0.46302,-0.415512 -0.25466,-0.09031 -0.67138,-0.343154 -0.92604,-0.561872 -0.42018,-0.360875 -0.46302,-0.34636 -0.46302,0.156896 0,0.747072 -0.43481,0.975174 -0.60661,0.318227 -0.0905,-0.346122 -0.36135,-0.52619 -0.79143,-0.52619 -0.35961,0 -0.79618,-0.171516 -0.97016,-0.381148 -0.42186,-0.50832 -1.0448,-0.235056 -1.40347,0.615669 -0.28581,0.677908 -0.29359,0.679794 -0.39506,0.0958 -0.08159,-0.469566 -0.229829,-0.564017 -0.700001,-0.446011 -0.370599,0.09302 -0.72657,-0.007 -0.939983,-0.264173 -0.18892,-0.227637 -0.527899,-0.413885 -0.753282,-0.413885 -0.225385,0 -0.623379,-0.193294 -0.884433,-0.429546 -0.442944,-0.400859 -0.49576,-0.38319 -0.790906,0.264584 -0.346776,0.761087 -0.760494,0.922798 -0.760494,0.297254 0,-0.220485 -0.235186,-0.396875 -0.529167,-0.396875 -0.352777,0 -0.529167,0.17639 -0.529167,0.529166 0,0.75941 -0.440761,0.652833 -0.643675,-0.155641 -0.138851,-0.553217 -0.243605,-0.625279 -0.545153,-0.375015 -0.205304,0.170387 -0.617117,0.2324 -0.915141,0.137811 -0.315076,-0.100002 -0.541864,-0.05378 -0.541864,0.110432 0,0.430472 -0.78957,0.33659 -0.962652,-0.114462 -0.08376,-0.218281 -0.440161,-0.396875 -0.791996,-0.396875 -0.442905,0 -0.718928,-0.208388 -0.897239,-0.677378 -0.321839,-0.8465 -0.787696,-0.602365 -0.787696,0.412795 0,0.847225 -0.391674,1.269101 -0.621705,0.669647 -0.08139,-0.212108 -0.480822,-0.386117 -0.887622,-0.386688 -1.962877,-0.0028 -3.511994,-0.213384 -3.892595,-0.529254 -0.257233,-0.213482 -0.727842,-0.287232 -1.213318,-0.190135 -0.447241,0.08945 -0.793094,0.04612 -0.793094,-0.09935 0,-0.486369 -0.731943,-0.258315 -0.870413,0.271198 -0.184362,0.704995 -0.676918,0.671526 -0.973426,-0.06615 -0.2349,-0.584397 -0.239593,-0.584991 -0.256056,-0.0324 -0.0092,0.309603 -0.187952,0.70498 -0.397171,0.878618 -0.310126,0.257381 -0.458012,0.165613 -0.800545,-0.496771 -0.521864,-1.009174 -0.629377,-1.011237 -0.975368,-0.01873 -0.314568,0.902372 -0.754104,1.056587 -0.754104,0.264583 0,-0.291042 -0.119063,-0.529167 -0.264584,-0.529167 -0.145521,0 -0.264583,0.178594 -0.264583,0.396875 0,0.264584 -0.264583,0.396875 -0.79375,0.396875 -0.529167,0 -0.79375,-0.132291 -0.79375,-0.396875 0,-0.218281 -0.132948,-0.396875 -0.295442,-0.396875 -0.165179,0 -0.234429,0.233312 -0.157062,0.529167 0.101502,0.388141 0.0081,0.529167 -0.350401,0.529167 -0.26883,0 -0.565941,-0.124844 -0.660244,-0.277432 -0.11522,-0.186431 -0.308028,-0.164732 -0.587809,0.06615 -0.32952,0.271925 -0.43956,0.274606 -0.527658,0.01286 -0.06123,-0.181901 -0.233193,-0.33073 -0.382156,-0.33073 -0.148963,0 -0.198187,0.189339 -0.109384,0.420751 0.260085,0.677773 -0.07167,0.905939 -0.820886,0.564571 -0.547965,-0.249669 -0.720513,-0.247534 -0.80635,0.01 -0.136273,0.408821 -0.858858,0.434596 -0.858858,0.03064 0,-0.216737 -0.09484,-0.218268 -0.351007,-0.0057 -0.365967,0.303724 -1.978105,-0.105047 -2.331392,-0.591145 -0.307023,-0.422442 -0.757185,0.118221 -0.757185,0.90941 0,0.825357 -0.228401,0.973066 -0.72962,0.471847 -0.231992,-0.231992 -0.40246,-0.226467 -0.702784,0.02278 -0.218075,0.180986 -0.52828,0.247621 -0.689345,0.148077 -0.161065,-0.09954 -0.540864,0.03903 -0.843994,0.307951 -0.416217,0.369234 -0.580618,0.404535 -0.67151,0.144187 -0.09574,-0.27423 -0.18255,-0.267189 -0.424366,0.03441 -0.167203,0.208539 -0.626665,0.454049 -1.021024,0.545573 -0.55263,0.128257 -0.782243,0.04454 -1.001498,-0.36514 -0.433629,-0.810242 -0.886291,-0.657149 -0.707036,0.239122 0.179602,0.898017 -0.199361,1.317345 -1.270669,1.406006 -0.402765,0.03334 -0.79674,0.241827 -0.875504,0.463318 -0.241334,0.678659 -1.019662,1.288523 -1.950138,1.528045 -0.771879,0.198694 -0.896782,0.349393 -0.966245,1.165781 -0.06993,0.821896 -0.155472,0.923115 -0.693258,0.820311 -0.480203,-0.0918 -0.679186,0.04607 -0.915913,0.634609 -0.166336,0.413535 -0.717299,1.466257 -1.224362,2.339382 -0.507063,0.873125 -0.992534,1.766094 -1.078825,1.984375 -0.08629,0.218281 -0.271884,0.639739 -0.412429,0.936572 -0.45057,0.951611 -0.361659,5.134401 0.151626,7.13322 1.060777,4.130844 2.243207,7.144101 3.509595,8.94371 0.429787,0.610751 0.942476,1.527175 1.13931,2.036498 0.196834,0.509323 0.55869,1.223698 0.804122,1.5875 0.245433,0.363802 0.508223,1.231836 0.583973,1.928966 0.07575,0.697129 0.341135,1.492268 0.589743,1.766977 0.280456,0.309899 0.387797,0.701794 0.282821,1.03255 -0.100269,0.315912 0.0517,0.96606 0.373026,1.595919 0.298222,0.584562 0.542221,1.23453 0.542221,1.444374 0,0.209841 0.37248,0.511378 0.827735,0.670081 0.680083,0.237079 0.771258,0.356608 0.511115,0.67006 -0.174141,0.209827 -0.278734,0.773295 -0.232424,1.252145 0.06592,0.68166 0.29046,0.98692 1.03445,1.406346 0.522637,0.29464 0.900115,0.683193 0.83884,0.863454 -0.06128,0.180261 0.344551,0.858938 0.901832,1.508173 0.810223,0.943909 1.24014,1.215831 2.145642,1.357127 0.923615,0.144124 1.105093,0.262731 0.9843,0.643308 -0.08913,0.280829 0.01307,0.528444 0.256667,0.621924 0.222618,0.08543 0.407408,0.367416 0.410644,0.626647 0.0032,0.259228 0.223504,0.754325 0.489487,1.100214 0.391488,0.509104 0.667552,0.607418 1.449324,0.51615 1.09878,-0.128276 1.145561,-0.06693 0.5027,0.659209 -0.454628,0.513516 -0.442925,0.51988 0.645489,0.350988 0.649118,-0.100724 1.176424,-0.06212 1.272386,0.09315 0.09013,0.145838 -0.11104,0.279244 -0.44705,0.29646 -0.512091,0.02625 -0.482513,0.06398 0.182821,0.233281 0.763083,0.194172 0.767342,0.203184 0.110244,0.23328 -0.37593,0.01722 -0.74585,-0.03104 -0.822044,-0.107236 z m 10.96944,-0.828763 c -0.179131,-0.07247 -0.536319,-0.07688 -0.79375,-0.0098 -0.257432,0.06708 -0.110869,0.126381 0.325694,0.131773 0.436562,0.0054 0.647187,-0.04949 0.468056,-0.12197 z m 36.364655,-1.413949 c -0.11612,-0.444066 -0.008,-0.529167 0.67161,-0.529167 0.79323,0 0.80008,-0.01095 0.3311,-0.529166 -0.29707,-0.328261 -0.81491,-0.529167 -1.36393,-0.529167 -0.94247,0 -1.08795,0.204645 -0.5543,0.779775 0.27202,0.293166 0.23679,0.320159 -0.19844,0.152061 -0.95073,-0.367202 -2.51354,-0.601263 -2.51354,-0.376452 0,0.311328 0.93409,0.772298 2.35383,1.161608 0.66992,0.183701 1.26169,0.348777 1.31505,0.366837 0.0533,0.01807 0.0347,-0.205287 -0.0414,-0.496329 z m 3.20465,-1.862569 c -0.65991,-0.385011 -3.06146,-0.656508 -2.73111,-0.308755 0.25937,0.273029 1.19832,0.473308 2.51354,0.536136 0.55186,0.02635 0.58791,-0.0113 0.21757,-0.227381 z m -10.06399,-0.715782 c 1.85591,-1.19289 3.44695,-4.082537 3.06082,-5.559087 -0.2427,-0.928081 -3.79938,-1.545828 -4.25125,-0.738383 -0.25303,0.452139 -2.57386,1.732071 -3.14066,1.732071 -0.69079,0 -0.6879,-0.698413 0.007,-1.722562 0.37216,-0.548412 0.67666,-1.103794 0.67666,-1.234178 0,-0.281699 -2.23376,-1.276596 -2.86621,-1.276585 -0.24259,5e-6 -0.78258,0.428008 -1.19997,0.951119 -0.68545,0.859059 -0.72518,1.01411 -0.410516,1.602062 0.273736,0.511485 0.282226,0.826199 0.03963,1.468903 -0.169807,0.449874 -0.248102,0.91607 -0.173985,1.035992 0.07412,0.119923 -0.04827,0.571969 -0.271962,1.004546 -0.509101,0.984497 -0.262753,1.170737 1.581103,1.19533 0.93572,0.01249 1.50345,0.165997 1.83303,0.495654 0.26259,0.262665 0.73029,0.451245 1.03931,0.419066 0.7759,-0.08079 2.81082,0.522518 2.81082,0.83335 0,0.383455 0.46558,0.307226 1.26608,-0.207298 z m -2.01895,-3.653108 c 0.0503,-0.25936 0.25161,-0.524909 0.44741,-0.590108 0.22771,-0.07582 0.32306,0.0514 0.26458,0.353026 -0.0503,0.25936 -0.25161,0.524909 -0.44741,0.590108 -0.22771,0.07582 -0.32305,-0.0514 -0.26458,-0.353026 z m -9.852809,-4.162967 c -0.168706,-0.370274 -0.530352,-0.7317 -0.803656,-0.803172 -0.36463,-0.09535 -0.496914,-0.372144 -0.496914,-1.039749 0,-0.559506 -0.19458,-1.085897 -0.50537,-1.36716 -0.277955,-0.251545 -0.577879,-0.746247 -0.666501,-1.099341 -0.167296,-0.66656 -0.529746,-0.834914 -0.812504,-0.377402 -0.08994,0.145521 -0.454152,0.264583 -0.809366,0.264583 -0.556786,0 -0.645842,0.122772 -0.645842,0.89036 0,0.489731 0.238106,1.193065 0.529166,1.563087 0.291042,0.369999 0.529167,0.855554 0.529167,1.079013 0,0.649042 1.082707,1.23004 2.292215,1.23004 0.613876,0 1.194618,0.126985 1.29054,0.282186 0.329136,0.532554 0.405812,0.05079 0.09906,-0.622445 z m 31.955929,-4.857377 c 0.22363,-0.582774 -0.54008,-1.111991 -1.37452,-0.952479 -0.76639,0.146505 -0.86801,0.711666 -0.19812,1.101839 0.69524,0.404942 1.38508,0.339426 1.57264,-0.14936 z m 3.52059,-1.822124 c 0,-0.559626 -0.64129,-0.75337 -1.30966,-0.395672 -0.72655,0.38884 -0.4531,0.800849 0.53152,0.800849 0.52238,0 0.77814,-0.133175 0.77814,-0.405177 z m -35.304082,-1.81732 c -0.216212,-1.441794 -1.13365,-2.985193 -1.53557,-2.583273 -0.331447,0.331446 0.166621,2.252896 0.771035,2.97452 0.192424,0.22974 0.349861,0.59685 0.349861,0.815798 0,0.594796 0.38303,0.866664 0.488405,0.346665 0.05034,-0.248423 0.01717,-0.947592 -0.07373,-1.55371 z m -3.986549,-2.911666 c 0,-0.928833 -0.69706,-1.470668 -1.274969,-0.991047 -0.347871,0.288708 -0.347371,0.418423 0.0043,1.123432 0.509211,1.020738 1.270635,0.941408 1.270635,-0.132385 z M 57.276068,38.647885 c 0.436563,-0.291046 1.208951,-0.795096 1.716419,-1.120111 0.7343,-0.470292 0.824558,-0.60983 0.442095,-0.683486 -0.885196,-0.170473 -1.622785,0.204827 -2.504181,1.274174 -0.96556,1.171453 -0.859959,1.333191 0.345667,0.529423 z m 43.093612,-1.525161 c -0.16168,-0.259093 -0.19545,-0.685192 -0.0781,-0.985584 0.28598,-0.732148 0.29192,-1.923456 0.0105,-2.097404 -0.12838,-0.07934 -1.088578,-0.200477 -2.133772,-0.269188 -1.31427,-0.0864 -2.184205,-0.300361 -2.820742,-0.693761 -0.601535,-0.37177 -1.16849,-0.520418 -1.636543,-0.429081 -0.494684,0.09653 -0.893326,-0.02509 -1.289058,-0.393288 -0.364405,-0.339047 -0.942155,-0.534972 -1.5875,-0.538349 -2.521987,-0.0132 -3.756824,0.112853 -4.406276,0.449793 -0.408651,0.21201 -0.763878,0.260665 -0.852789,0.116805 -0.311123,-0.503409 -2.122726,-0.227504 -3.503123,0.533521 l -1.39759,0.770504 0.173448,-0.924552 0.173447,-0.924553 -1.421691,0.01807 c -0.781931,0.0099 -1.975681,-0.05303 -2.652781,-0.139927 -0.875461,-0.112356 -1.502175,-0.02936 -2.169512,0.287313 -0.516131,0.24492 -1.054547,0.37354 -1.196478,0.285821 -0.464351,-0.286984 -1.58863,0.433105 -1.850914,1.185491 -0.141142,0.404884 -0.513461,0.992991 -0.827376,1.306905 -0.634587,0.634587 -0.535707,1.32449 0.189463,1.321916 0.464662,-0.0016 1.397365,-1.31199 1.397365,-1.963137 0,-0.52266 0.993794,-1.291572 1.445353,-1.118291 0.579382,0.222329 0.507857,0.528565 -0.315825,1.352249 -0.693058,0.693056 -0.702368,0.73732 -0.228034,1.084161 0.341426,0.249658 0.640323,0.283574 0.965481,0.109555 0.259027,-0.138627 0.822825,-0.181675 1.252889,-0.09566 0.621972,0.124395 0.869966,0.0307 1.212284,-0.458029 0.236685,-0.337927 0.430345,-0.861766 0.430345,-1.164084 0,-0.567242 0.454808,-1.184671 0.872646,-1.184671 0.134278,0 0.158284,0.683773 0.05519,1.572029 l -0.182454,1.572029 0.732597,-0.07811 c 0.40709,-0.0434 0.980654,-0.389205 1.290891,-0.778278 0.307062,-0.385095 0.616045,-0.700172 0.686628,-0.700172 0.07058,0 0.349163,0.410061 0.61907,0.911245 0.44392,0.824314 0.529987,0.871996 0.902158,0.499825 0.37217,-0.37217 0.44115,-0.370759 0.723077,0.0148 0.633796,0.86677 1.708528,0.306456 1.708528,-0.890746 0,-0.790126 0.716346,-1.937106 1.072388,-1.71706 0.133337,0.08241 0.244486,0.411821 0.246999,0.73203 0.01117,1.422152 0.159618,2.133607 0.466551,2.235884 0.181901,0.06061 0.330729,-0.0049 0.330729,-0.145568 0,-0.140675 0.253373,-0.322032 0.563052,-0.403014 0.45067,-0.117854 0.535323,-0.292296 0.424127,-0.873986 -0.07641,-0.399709 -0.07892,-0.883118 -0.0056,-1.074242 0.212019,-0.552511 0.798105,-0.403287 0.973304,0.247814 0.0881,0.327422 0.400154,0.892969 0.693449,1.256771 0.528196,0.655172 0.537158,0.656429 0.943187,0.132291 0.405075,-0.522902 0.41443,-0.523087 0.790443,-0.01558 0.209283,0.282475 0.380516,0.669428 0.380516,0.859896 0,0.190468 0.178593,0.346305 0.396875,0.346305 0.218281,0 0.396875,0.119063 0.396875,0.264584 0,0.145521 0.119062,0.264583 0.264583,0.264583 0.145521,0 0.264583,-0.654844 0.264583,-1.455208 0,-1.067456 0.09821,-1.455209 0.368568,-1.455209 0.434956,0 0.688194,0.563179 0.693816,1.542994 0.0048,0.831572 0.185738,1.119386 0.984547,1.565861 0.847209,0.473527 0.947669,0.420916 0.781619,-0.409336 -0.161341,-0.806706 0.140303,-1.535238 0.534725,-1.291471 0.136091,0.08411 0.406586,0.635144 0.601099,1.224522 0.277495,0.840821 0.485198,1.071597 0.964462,1.071597 0.434237,0 0.566783,-0.114727 0.458512,-0.396875 -0.09644,-0.251313 0.0037,-0.396875 0.272886,-0.396875 0.233852,0 0.425183,0.182431 0.425183,0.405401 0,0.222971 0.267891,0.508187 0.595313,0.633815 0.767167,0.294353 1.214687,-0.09288 0.826417,-0.71509 z M 64.929652,35.99435 c 0.642147,-1.386011 1.386541,-2.370751 1.792121,-2.370751 0.209444,0 0.099,1.249908 -0.212413,2.403892 -0.09335,0.345922 0.127553,0.414811 1.259221,0.39269 0.843238,-0.01648 1.415008,-0.15456 1.482852,-0.358096 0.06073,-0.182198 0.278387,-0.499232 0.483677,-0.704521 0.575212,-0.575212 0.448448,-0.734193 -0.431337,-0.54096 -1.248788,0.27428 -2.236221,-0.883214 -1.113642,-1.305439 0.254662,-0.09578 0.87974,-0.407141 1.389063,-0.691906 l 0.926041,-0.517755 -1.918229,-4.23e-4 c -1.592344,-3.44e-4 -2.012024,0.09338 -2.470324,0.551684 -0.385139,0.38514 -0.743969,0.503938 -1.186596,0.392846 -0.444563,-0.111579 -0.802452,0.0087 -1.195554,0.401805 l -0.561054,0.561055 0.62317,0.31619 c 0.640877,0.325175 0.720934,0.777644 0.367226,2.075488 -0.318252,1.167755 0.09585,0.840153 0.765778,-0.605811 z M 62.39139,35.95034 c 0.295392,-0.466541 0.485558,-0.931613 0.422593,-1.033494 -0.198901,-0.321829 -1.173102,0.07367 -1.567117,0.636201 -0.334118,0.477021 -0.325389,0.581041 0.07424,0.884652 0.249084,0.189237 0.470953,0.347854 0.493043,0.352482 0.02209,0.0046 0.281847,-0.3733 0.577241,-0.839841 z m 37.62733,-3.054348 c 0.007,-0.254662 0.0389,-1.088099 0.0712,-1.852084 0.0323,-0.763984 -0.0286,-1.389062 -0.135426,-1.389062 -0.500126,0 -1.202592,2.546999 -0.911603,3.305299 0.211704,0.551696 0.960629,0.502461 0.975859,-0.06415 z m 6.54066,-0.880272 c 0.0668,-0.854759 0.0482,-0.876797 -0.33073,-0.392075 -0.48617,0.621839 -0.53331,1.558141 -0.0708,1.406311 0.1819,-0.05971 0.36259,-0.51612 0.40154,-1.014236 z M 93.731523,31.003088 c 0.496236,-0.840062 0.579686,-1.798192 0.207787,-2.38578 -0.181345,-0.286523 -0.337902,-0.137061 -0.657407,0.627624 -0.441129,1.055774 -0.564449,2.526584 -0.211839,2.526584 0.114147,0 0.411803,-0.345793 0.661459,-0.768428 z M 65.213569,30.716202 c 1.191278,-0.440513 3.040705,-1.373228 3.184623,-1.606088 0.08464,-0.136958 -0.08423,-0.249015 -0.37527,-0.249015 -0.291041,0 -0.602749,0.119062 -0.692687,0.264583 -0.08994,0.145521 -0.396451,0.264584 -0.681143,0.264584 -0.440674,0 -3.419898,1.756368 -3.419898,2.016162 0,0.04904 0.327421,-0.04217 0.727604,-0.202695 0.400182,-0.16052 0.965729,-0.379909 1.256771,-0.487531 z M 82.11243,30.91162 c 0.233323,-0.87064 0.207317,-0.992188 -0.212281,-0.992188 -0.424944,0 -0.802611,0.909324 -0.54846,1.320549 0.272555,0.441003 0.591447,0.303359 0.760741,-0.328361 z m 2.812597,-0.05784 c 0,-0.236695 -0.155122,-0.329045 -0.396875,-0.236276 -0.218281,0.08376 -0.396875,0.258619 -0.396875,0.388571 0,0.129952 0.178594,0.236276 0.396875,0.236276 0.218282,0 0.396875,-0.174857 0.396875,-0.388571 z m 2.328334,0.07107 c 0.346961,-0.346961 0.40604,-1.309024 0.141168,-2.298781 -0.165526,-0.618519 -0.179226,-0.612913 -0.646755,0.264583 -0.845831,1.587523 -0.487889,3.027675 0.505587,2.034198 z m 8.255,-0.520347 c 0,-0.963421 -0.115499,-0.928508 -0.364696,0.110243 -0.103622,0.431942 -0.06499,0.727604 0.09507,0.727604 0.148294,0 0.269624,-0.377031 0.269624,-0.837847 z m -16.933334,0.05971 c 0,-0.736413 -0.45453,-0.914039 -0.780476,-0.305003 -0.384926,0.719244 -0.354438,0.818555 0.25131,0.818555 0.347413,0 0.529166,-0.176389 0.529166,-0.513552 z m 1.79763,-0.237723 c 0.274576,-0.787647 0.139488,-2.159142 -0.212667,-2.159142 -0.357341,0 -1.131843,2.308734 -0.900224,2.683502 0.289918,0.469095 0.860248,0.200373 1.112891,-0.52436 z m -5.749034,-0.220394 c 0.14786,-0.388897 0.19594,-0.894913 0.106847,-1.124479 -0.140547,-0.362151 -0.212013,-0.349419 -0.539964,0.0962 -0.436338,0.592887 -0.50668,1.735367 -0.106847,1.735367 0.149122,0 0.392107,-0.318188 0.539964,-0.707085 z m 10.830571,-0.89603 c 0,-0.136932 -0.119062,-0.248968 -0.264583,-0.248968 -0.145521,0 -0.264584,0.18562 -0.264584,0.41249 0,0.226869 0.119063,0.338905 0.264584,0.248968 0.145521,-0.08994 0.264583,-0.275557 0.264583,-0.41249 z m -2.910417,-0.38126 c 0,-0.218281 -0.119062,-0.396875 -0.264583,-0.396875 -0.145521,0 -0.264583,0.178594 -0.264583,0.396875 0,0.218281 0.119062,0.396875 0.264583,0.396875 0.145521,0 0.264583,-0.178594 0.264583,-0.396875 z M 68.538254,28.05804 c -59.325644,-115.188413 -29.662822,-57.594207 0,0 z m 16.323713,65.438846 c 0.329118,-0.06329 0.805368,-0.06088 1.058333,0.0053 0.252966,0.06622 -0.01632,0.118005 -0.598398,0.115068 -0.582083,-0.0029 -0.789053,-0.05712 -0.459935,-0.120407 z m 4.61374,-0.0097 c 1.265947,-0.04839 3.409072,-0.04862 4.762501,-5.29e-4 1.353428,0.04812 0.317653,0.08771 -2.301722,0.08799 -2.619375,2.64e-4 -3.726725,-0.03909 -2.460779,-0.08749 z m 8.354751,0.0027 c 0.622311,-0.05589 1.574811,-0.0551 2.116667,0.0019 0.541855,0.05685 0.0327,0.102582 -1.131472,0.101622 -1.164167,-0.0011 -1.607505,-0.04748 -0.985195,-0.103371 z M 69.446902,90.773598 c 0.727363,-0.312557 1.145109,-0.312557 0.661458,0 -0.218281,0.141066 -0.575468,0.249936 -0.79375,0.241935 -0.261688,-0.0096 -0.216625,-0.092 0.132292,-0.241935 z m -4.849511,-2.347666 c -0.235701,-0.149423 0.0045,-0.270653 0.728633,-0.367784 1.224622,-0.164256 2.201511,0.01497 1.985622,0.364281 -0.183708,0.297243 -2.246712,0.299908 -2.714255,0.0035 z M 60.120339,81.86712 c -0.508031,-0.204994 -0.393499,-0.54039 0.241213,-0.706371 0.663604,-0.173535 1.632299,0.261265 1.404228,0.63029 -0.162393,0.262761 -1.077896,0.305091 -1.645441,0.07608 z m 7.871355,-0.60897 c -2.495034,-0.25844 -3.724683,-0.772702 -4.895345,-2.04733 -0.990661,-1.078643 -1.173014,-1.666388 -0.517014,-1.666388 0.22466,0 0.384474,-0.148828 0.355144,-0.330729 -0.05083,-0.315257 0.0728,-0.737354 0.561849,-1.91823 0.495257,-1.195869 0.490077,-2.125061 -0.01553,-2.78308 -0.622792,-0.810562 -0.654449,-1.317961 -0.08222,-1.317961 0.238683,0 1.399543,-0.310139 2.579687,-0.6892 1.531163,-0.491808 2.350757,-0.920657 2.861607,-1.497327 0.860285,-0.971127 1.374727,-0.724848 1.659773,0.794586 0.270325,1.440952 1.081141,2.864739 2.053961,3.606747 2.079972,1.586471 5.477727,2.317316 7.476628,1.608195 0.582083,-0.206499 1.296458,-0.376171 1.5875,-0.377049 0.291041,-7.94e-4 0.853384,-0.389626 1.249653,-0.863881 1.036794,-1.240837 0.924531,-0.433041 -0.288385,2.075119 -1.056979,2.185694 -1.96841,3.170571 -3.797842,4.103878 -2.053239,1.047483 -7.224885,1.671876 -10.789468,1.30265 z m 11.377083,-4.110593 c 0,-0.415407 -0.459928,-0.508368 -1.168984,-0.236276 -0.691023,0.265171 -0.472941,0.633151 0.375234,0.633151 0.529167,0 0.79375,-0.132292 0.79375,-0.396875 z m -10.00125,-4.153958 c -0.174625,-0.174625 -0.3175,-0.531813 -0.3175,-0.79375 0,-0.540518 -0.400621,-0.633712 -0.692687,-0.161137 -0.107114,0.173313 -0.05461,0.361828 0.116676,0.418925 0.171286,0.05709 0.311428,0.272481 0.311428,0.478634 0,0.206156 0.202406,0.374827 0.449791,0.374827 0.349838,0 0.379236,-0.07056 0.132292,-0.317499 z m 38.980613,6.914504 c -2.68545,-0.448966 -5.17173,-1.752867 -6.6355,-3.479906 -0.84848,-1.001091 -2.546779,-4.534649 -3.459663,-7.198336 -0.709787,-2.071079 -0.815523,-4.318249 -0.253648,-5.390756 0.838477,-1.600486 2.796821,-2.963423 4.258011,-2.963423 0.34601,0 1.02287,-0.229441 1.50413,-0.509871 1.5365,-0.89531 6.65825,-1.388792 10.79689,-1.04028 4.74011,0.399161 7.29324,1.448953 8.15613,3.353625 0.35873,0.791848 0.4339,1.750883 0.40073,5.113269 -0.0675,6.847215 -0.81445,9.027845 -3.4906,10.190792 -0.82191,0.357169 -2.03016,0.894114 -2.68501,1.19321 -0.7321,0.33438 -2.15863,0.630684 -3.70417,0.769387 -2.89598,0.259895 -3.11743,0.258186 -4.8873,-0.03771 z m 3.4321,-0.511588 c 0.57778,-0.24828 0.34493,-0.351623 -0.61397,-0.272492 -0.40037,0.03304 -0.93652,-0.28145 -1.5411,-0.903967 -0.50992,-0.52505 -1.36473,-1.160214 -1.89957,-1.411475 -0.62218,-0.292288 -1.00267,-0.6691 -1.05634,-1.046139 -0.0634,-0.445246 -0.38678,-0.681249 -1.32292,-0.965444 -0.68146,-0.206875 -1.44738,-0.45998 -1.70204,-0.562451 -0.34804,-0.140046 -0.46302,-0.05589 -0.46302,0.338889 0,0.288862 -0.26365,0.70026 -0.58589,0.91422 -0.55227,0.366689 -0.56167,0.425487 -0.16389,1.024459 0.59062,0.889344 3.16198,2.373865 4.79936,2.770799 1.59415,0.386458 3.78698,0.441216 4.54938,0.113601 z m 8.81772,-3.622072 c 1.07665,-0.177032 1.24592,-0.543303 0.71851,-1.554699 -0.22267,-0.426995 -0.4074,-1.07401 -0.41053,-1.437812 -0.003,-0.363802 -0.1109,-0.827635 -0.23951,-1.030743 -0.30136,-0.475935 -1.08098,-0.181432 -1.08098,0.408342 0,0.523719 -0.42753,1.950675 -0.96926,3.235127 l -0.37661,0.892932 0.73908,-0.184206 c 0.40649,-0.101314 1.13517,-0.249335 1.6193,-0.328941 z m -12.96925,-2.737151 c 1.275,-0.389726 3.30806,-2.046346 3.88825,-3.168298 0.61903,-1.197081 0.74093,-2.674716 0.30537,-3.701645 -0.8358,-1.970617 -2.72302,-2.910417 -5.84439,-2.910417 -1.63804,0 -2.06453,0.104775 -3.10032,0.761661 -1.64105,1.04072 -2.33698,2.269297 -2.66161,4.698714 -0.244075,1.826522 -0.221342,2.070902 0.25166,2.705526 1.37115,1.839685 4.27926,2.49532 7.16104,1.614459 z m 2.16715,-3.619979 c 0,-0.128543 0.13783,-0.371544 0.30629,-0.540001 0.47776,-0.477766 -0.16619,-1.075865 -0.989,-0.918576 -0.52646,0.10064 -0.91066,-0.096 -1.70715,-0.873757 -0.56529,-0.551992 -0.96618,-1.103336 -0.89086,-1.225211 0.0753,-0.121873 0.78477,-0.221586 1.57655,-0.221586 1.97812,0 2.55457,0.575228 2.44514,2.439964 -0.0462,0.787286 -0.21806,1.400561 -0.41024,1.463892 -0.1819,0.05995 -0.33073,0.0038 -0.33073,-0.124725 z m 5.24091,2.281251 c 1.11128,-0.568315 2.16204,-1.033299 2.33503,-1.033299 0.55667,0 1.68448,-1.597459 1.68448,-2.385936 0,-0.992684 -0.22835,-1.101973 -2.26971,-1.086307 -0.9443,0.0072 -2.01377,-0.122084 -2.37661,-0.287404 -0.93755,-0.42718 -1.15167,-0.105815 -1.74029,2.611914 -0.27854,1.286097 -0.57926,2.619481 -0.66826,2.963074 -0.1426,0.550547 -0.092,0.602546 0.42652,0.437986 0.32358,-0.102701 1.49756,-0.651714 2.60884,-1.220028 z M 99.5971,67.459071 c 0.152598,-1.490843 0.114144,-1.77596 -0.258842,-1.919087 -0.693214,-0.266012 -0.91948,0.04527 -0.91948,1.264955 0,1.306084 0.498327,2.946498 0.797002,2.6236 0.111151,-0.120166 0.282747,-1.006425 0.38132,-1.969468 z m 18.5648,-3.707543 c 0.80299,-0.300434 1.52048,-0.703913 1.59442,-0.89662 0.38618,-1.006358 -1.49971,-2.289302 -3.01757,-2.052809 -0.51304,0.07993 -1.03292,-0.0072 -1.28351,-0.215207 -0.60902,-0.505439 -8.89743,-0.513522 -10.09115,-0.0098 -0.47294,0.199557 -0.8599,0.473523 -0.8599,0.608815 0,0.344281 1.45314,0.912042 3.175,1.240512 0.80037,0.15268 2.40771,0.705448 3.57188,1.228375 1.92717,0.865654 2.26592,0.936996 3.78377,0.796896 0.9169,-0.08463 2.32408,-0.399687 3.12706,-0.700122 z m -34.118816,8.060264 c -0.09701,-0.09701 -0.17639,-0.441658 -0.17639,-0.765879 0,-1.063365 -1.029507,-3.950573 -1.850811,-5.190513 -1.02123,-1.541778 -1.688327,-1.806385 -4.67079,-1.852692 -3.090638,-0.04799 -5.241618,0.679921 -6.828819,2.310926 -1.634644,1.679755 -3.257381,2.489533 -5.892485,2.940465 -1.58109,0.270566 -2.510021,0.573085 -2.914907,0.949286 -0.326848,0.303688 -0.684035,0.462396 -0.79375,0.352681 -0.109715,-0.109714 -0.19948,-1.112295 -0.19948,-2.227953 0,-1.566727 0.123378,-2.239269 0.542004,-2.954514 0.63717,-1.088639 3.617368,-3.175 4.535231,-3.175 0.350671,0 0.965512,-0.169577 1.366308,-0.376839 2.30399,-1.191439 9.893557,-1.63069 12.160534,-0.703802 0.681821,0.278776 1.820675,0.576271 2.530787,0.661107 1.669368,0.199429 2.901741,0.976257 3.479168,2.193097 0.611828,1.28933 0.406416,5.053454 -0.371774,6.812682 -0.551196,1.246068 -0.619279,1.322496 -0.914826,1.026948 z m -27.509262,-7.68173 c -1.201949,-0.31157 0.62956,-1.296493 1.866726,-1.003861 0.685469,0.162137 0.793699,0.791737 0.176797,1.028465 -0.460923,0.176874 -1.305505,0.166703 -2.043523,-0.02461 z m 1.474886,-0.517514 c -0.179131,-0.07247 -0.536319,-0.07688 -0.79375,-0.0098 -0.257432,0.06708 -0.110869,0.126381 0.325694,0.131773 0.436562,0.0054 0.647186,-0.04949 0.468056,-0.12197 z m 65.968082,-2.020507 c -0.76603,-0.565266 -0.2724,-0.980942 1.16491,-0.980942 1.96998,0 2.15801,0.842028 0.26458,1.184798 -0.61198,0.110787 -1.09678,0.04165 -1.42949,-0.203856 z m 1.69407,-0.451776 c 0,-0.145521 -0.29063,-0.264583 -0.64584,-0.264583 -0.35521,0 -0.71943,0.119062 -0.80937,0.264583 -0.0954,0.154363 0.17364,0.264584 0.64585,0.264584 0.44515,0 0.80936,-0.119063 0.80936,-0.264584 z M 88.57102,60.993898 c -0.04467,-0.04467 -1.612781,-0.386022 -3.484681,-0.75855 -1.871901,-0.372525 -3.742053,-0.846235 -4.155896,-1.052687 -0.462457,-0.230706 -1.156821,-0.32113 -1.801717,-0.23463 -1.685782,0.22611 -3.877612,-0.160631 -4.920205,-0.868154 -0.521764,-0.354078 -1.101212,-0.643778 -1.287666,-0.643778 -0.416584,0 -1.489578,-1.108168 -1.489578,-1.538407 0,-0.425963 0.57866,-0.394308 1.49111,0.08157 0.809453,0.422159 1.686507,0.526614 1.679839,0.200068 -0.0084,-0.409924 -0.410522,-0.802034 -0.92199,-0.89897 -0.425114,-0.08057 -0.533972,-0.320706 -0.553601,-1.221232 -0.01344,-0.616519 0.09119,-1.120944 0.232515,-1.120944 0.141322,0 0.720993,0.419235 1.288153,0.931632 0.857102,0.77434 1.119376,0.884444 1.553425,0.652148 0.614513,-0.328877 0.62548,-0.444294 0.125341,-1.319197 -0.495993,-0.867648 -0.496231,-1.757341 -5.29e-4,-1.947561 0.45067,-0.172939 1.333468,0.974067 1.073475,1.394746 -0.08981,0.145315 0.257117,0.849379 0.770943,1.56459 0.60701,0.84491 0.934233,1.599052 0.934233,2.153092 0,0.46899 0.222787,1.135938 0.495083,1.482106 0.483257,0.614362 0.505878,0.617463 0.947129,0.129886 0.489673,-0.541078 0.318183,-1.147696 -0.639831,-2.263317 -0.701043,-0.816375 -1.860711,-3.053546 -1.860711,-3.589586 0,-0.264123 -0.119063,-0.55381 -0.264584,-0.643747 -0.437515,-0.270399 -0.315642,-1.455209 0.149686,-1.455209 0.875792,0 1.43588,0.556181 1.6012,1.59003 0.14945,0.934606 0.262593,1.062103 1.078341,1.215138 0.744683,0.139703 0.983374,0.06818 1.305036,-0.391054 0.216511,-0.309118 0.595268,-0.559895 0.841677,-0.557286 0.481028,0.0051 2.696977,2.483519 2.696977,3.016432 0,0.436748 1.804871,2.005907 2.307225,2.005907 0.331796,0 0.375018,-0.24864 0.241467,-1.389063 C 87.670675,52.68102 87.521564,52.172993 86.90197,51.767019 86.56433,51.54579 86.208749,51.11484 86.111792,50.809352 85.958487,50.326331 85.800655,50.276706 84.901099,50.428685 l -1.034405,0.174763 v -0.949299 c 0,-0.823158 0.08359,-0.949298 0.629063,-0.949298 0.345982,0 0.77728,-0.178594 0.958437,-0.396875 0.181158,-0.218282 0.669719,-0.396875 1.085689,-0.396875 0.605411,0 0.791924,0.145174 0.934797,0.727604 0.09816,0.400182 0.430032,0.965729 0.737483,1.256771 0.307449,0.291041 0.898173,0.975386 1.31272,1.520769 0.779581,1.025618 0.799449,1.397072 0.159242,2.977147 -0.295503,0.729322 -0.243975,0.911871 0.634812,2.248959 0.526032,0.800364 1.07541,1.599012 1.220841,1.774769 0.145428,0.17576 0.264416,0.513104 0.264416,0.749655 0,0.920276 0.670719,0.147878 0.831954,-0.958078 0.09377,-0.64321 0.259566,-1.624504 0.368429,-2.180653 0.120145,-0.613775 0.06438,-1.567924 -0.141901,-2.427785 -0.333886,-1.391785 -0.327541,-1.427377 0.362143,-2.031527 0.392983,-0.344246 0.904486,-1.254006 1.162031,-2.066795 0.396883,-1.252519 0.613691,-1.532242 1.578981,-2.037175 1.00961,-0.528116 1.158907,-0.54532 1.528154,-0.176075 0.225073,0.225076 0.593384,0.338558 0.818467,0.252185 0.445294,-0.170873 1.429242,0.25132 1.429242,0.613262 0,0.123428 -0.246962,0.288999 -0.548801,0.367932 -0.301842,0.07893 -0.60883,0.373062 -0.682199,0.653624 -0.07337,0.280561 -0.659844,0.950166 -1.303282,1.488011 -0.643437,0.537848 -1.169884,1.135994 -1.169884,1.329214 0,0.19322 -0.163063,0.48664 -0.362363,0.652045 -0.1993,0.165401 -0.568539,0.840599 -0.820534,1.500436 -0.381693,0.999445 -0.404177,1.330055 -0.134704,1.98062 0.177905,0.429506 0.436028,0.780918 0.573603,0.780918 0.495432,0 2.017432,-1.358421 2.308775,-2.060636 0.163725,-0.394618 0.836115,-1.247725 1.4942,-1.895792 1.148895,-1.131406 1.229975,-1.165675 2.037035,-0.861044 1.04109,0.392967 1.33069,0.153175 2.02991,-1.680795 0.41383,-1.085416 0.61055,-1.306941 1.16059,-1.306941 0.36426,0 0.75225,-0.0893 0.8622,-0.198438 0.32644,-0.324054 0.64087,-0.226695 0.64087,0.198438 0,0.622046 0.51649,0.464672 0.78398,-0.238882 0.37988,-0.999162 0.91852,-1.194615 0.73106,-0.265279 -0.0853,0.422809 -0.2436,0.997773 -0.35182,1.277699 -0.15655,0.404945 -0.10626,0.474229 0.24606,0.339032 0.2846,-0.109212 0.4428,-0.03704 0.4428,0.202015 0,0.277283 0.2356,0.333705 0.92575,0.22171 0.87005,-0.14119 0.93575,-0.100182 1.09213,0.681717 0.16556,0.8278 1.0495,1.456309 2.34775,1.66932 0.30504,0.05005 0.56391,0.329684 0.6112,0.66022 0.0709,0.495977 0.20492,0.553456 0.99219,0.425699 0.65589,-0.106437 0.91015,-0.04915 0.91015,0.205055 0,0.194013 0.38077,0.745603 0.84615,1.225759 0.54376,0.561019 0.75489,0.964271 0.59078,1.128381 -0.14046,0.140457 -1.62255,0.328576 -3.29355,0.418042 -1.67099,0.08947 -3.89896,0.335822 -4.95104,0.547457 -1.05207,0.211635 -2.65942,0.49361 -3.57187,0.626613 -0.91246,0.133001 -3.20682,0.669798 -5.098594,1.192879 -3.182342,0.879933 -6.097455,1.38048 -9.182746,1.576748 -0.684882,0.04357 -1.281795,0.04266 -1.32647,-0.0021 z m -3.485954,-3.095702 c 0.03169,-1.096568 -0.886722,-2.929998 -1.529749,-3.053834 -0.524349,-0.100981 -1.276123,1.296024 -1.276123,2.371394 0,1.281004 0.479872,1.760175 1.700131,1.697644 1.047035,-0.05365 1.078791,-0.08281 1.105741,-1.015204 z m 15.547524,0.68675 c 0.42237,-0.124698 0.47521,-0.341688 0.36429,-1.49606 -0.0714,-0.742614 -0.2639,-1.394928 -0.42788,-1.449589 -0.16398,-0.05466 -0.29814,-0.327583 -0.29814,-0.606496 0,-0.278916 -0.11906,-0.507119 -0.26458,-0.507119 -0.145523,0 -0.264586,0.12201 -0.264586,0.271132 0,0.149122 -0.270277,0.37389 -0.600612,0.499485 -0.464449,0.176583 -0.672925,0.573093 -0.91957,1.748981 -0.175424,0.836348 -0.2487,1.634302 -0.162835,1.773235 0.143545,0.232262 1.374434,0.120565 2.573913,-0.233569 z m 5.93087,-1.634133 c 0.079,-0.239845 -0.0773,-0.324654 -0.48772,-0.264583 -0.33223,0.04863 -0.65641,0.247258 -0.72039,0.441404 -0.079,0.239845 0.0773,0.324654 0.48771,0.264583 0.33224,-0.04863 0.65641,-0.247258 0.7204,-0.441404 z M 74.3902,54.468355 c -0.189854,-0.189855 -0.313089,-0.205476 -0.313089,-0.03969 0,0.150374 0.07937,0.35278 0.176389,0.449792 0.09701,0.09701 0.237903,0.114874 0.31309,0.03969 0.07519,-0.07518 -0.0042,-0.27759 -0.17639,-0.449791 z m -5.922256,3.708577 c 0.246943,-0.246944 0.388056,-0.246944 0.635,0 0.246943,0.246944 0.17639,0.3175 -0.3175,0.3175 -0.49389,0 -0.564444,-0.07056 -0.3175,-0.3175 z m 1.541198,0.106429 c -0.07175,-0.116089 -0.0388,-0.359365 0.07322,-0.540618 0.153842,-0.24892 0.35995,-0.199435 0.842439,0.202268 l 0.638765,0.531816 -0.711989,0.0088 c -0.391594,0.0048 -0.770691,-0.08618 -0.842438,-0.202268 z M 122.33956,40.667889 c -0.22416,-0.584149 0.0741,-0.882369 0.47821,-0.478213 0.23863,0.238628 0.23965,0.386535 0.004,0.621916 -0.23538,0.235379 -0.35012,0.201203 -0.48248,-0.143703 z m -14.66037,-5.604697 c 0,-0.226869 0.11907,-0.338905 0.26459,-0.248968 0.14552,0.08994 0.26458,0.275557 0.26458,0.41249 0,0.136932 -0.11906,0.248968 -0.26458,0.248968 -0.14552,0 -0.26459,-0.18562 -0.26459,-0.41249 z m 3.3186,-3.273394 c -0.0837,-0.135466 -0.0312,-0.321086 0.11667,-0.41249 0.1479,-0.0914 0.2689,0.01943 0.2689,0.246301 0,0.464747 -0.15876,0.533177 -0.38557,0.166189 z"
         id="path295"
         sodipodi:nodetypes="ccsssssssssssssssssssssssssssscsssssssssscccssssssssssssssssssssssssssssscssssssccssssssscssssssssssssssssssssssssscsssssssssssssssscsssscsssssssssssssssssssssssssssssssscsscsssscssssssssssssssssssssssssssssssssssssssssssssssssssssssssscssssssssssssssssssssssssssssssssssssssssscsssssssssssssssssssssssssssssssssssssssssssssssssssssssssssssssssssssssssccssssssssssssssssssssssssssssssssssssssssssssssssssssssssssssssssssssssssssssssssssssssssssssccccssssscsssssssssscssssssssssssscssssssssssssssssssssssssssssssscsssscssssssssssssssssssssssssssssssssssssssssssssssssssssssssssssssssssssssssssssccsssssssssscccccssssssssssssssssssssssssscssssssssssssssssssssssssssssssssssssssssssscssscsssssssssssssssssssssssssssssssssssscssssssssssssssssssssssssssssssssssssssssssscsssssssssssssssssssssssssssssssssscssssssssssssssssssssssssssssssssssssssssssscsssssssssccssssssssssssssscssscsssssssssssssccsscscccsssssssss" /><path
         style="fill:#4a422a;stroke-width:0.264583"
         d="m 67.929472,93.232191 c 1.079206,-0.207428 0.323437,-0.612089 -0.813644,-0.435647 -1.088414,0.168892 -1.100117,0.162529 -0.645489,-0.350988 0.642861,-0.726136 0.59608,-0.787485 -0.5027,-0.659209 -0.781772,0.09127 -1.057836,-0.007 -1.449324,-0.51615 -0.265983,-0.345889 -0.486251,-0.840986 -0.489487,-1.100214 -0.0032,-0.259231 -0.188026,-0.541221 -0.410644,-0.626647 -0.24361,-0.09348 -0.345797,-0.341095 -0.256667,-0.621924 0.120793,-0.380577 -0.06068,-0.499184 -0.9843,-0.643308 -0.905502,-0.141295 -1.335419,-0.413218 -2.145642,-1.357127 -0.557281,-0.649235 -0.963107,-1.327912 -0.901832,-1.508173 0.06128,-0.180261 -0.316203,-0.568814 -0.83884,-0.863454 -0.74399,-0.419426 -0.968529,-0.724686 -1.03445,-1.406345 -0.04631,-0.478851 0.05828,-1.042319 0.232424,-1.252146 0.260143,-0.313452 0.168968,-0.43298 -0.511115,-0.67006 -0.455255,-0.158703 -0.827735,-0.46024 -0.827735,-0.670081 0,-0.209844 -0.243999,-0.859812 -0.542221,-1.444374 -0.321329,-0.629859 -0.473295,-1.280007 -0.373026,-1.595919 0.104976,-0.330756 -0.0024,-0.722651 -0.282821,-1.03255 -0.248608,-0.274709 -0.51399,-1.069848 -0.589743,-1.766977 -0.07575,-0.69713 -0.33854,-1.565164 -0.583973,-1.928966 -0.245432,-0.363802 -0.607288,-1.078177 -0.804122,-1.5875 -0.196834,-0.509323 -0.709523,-1.425747 -1.13931,-2.036498 -1.266388,-1.799609 -2.448818,-4.812866 -3.509595,-8.94371 -0.513285,-1.998819 -0.602196,-6.181609 -0.151626,-7.13322 0.140545,-0.296833 0.326138,-0.718291 0.412429,-0.936572 0.08629,-0.218281 0.571762,-1.11125 1.078825,-1.984375 0.507063,-0.873125 1.058026,-1.925846 1.224362,-2.339382 0.236727,-0.588537 0.43571,-0.726406 0.915913,-0.634609 0.537786,0.102804 0.623326,0.0016 0.693258,-0.820311 0.06946,-0.816388 0.194366,-0.967087 0.966245,-1.165781 0.930476,-0.239522 1.708804,-0.849386 1.950138,-1.528045 0.07876,-0.221491 0.472739,-0.429983 0.875504,-0.463317 1.071308,-0.08866 1.450271,-0.50799 1.270669,-1.406007 -0.179255,-0.896271 0.273407,-1.049364 0.707036,-0.239122 0.219255,0.409683 0.448868,0.493397 1.001498,0.365141 0.394359,-0.09152 0.853821,-0.337035 1.021024,-0.545574 0.241816,-0.301601 0.328629,-0.308642 0.424366,-0.03441 0.09089,0.260348 0.255293,0.225047 0.67151,-0.144187 0.30313,-0.268917 0.682929,-0.407495 0.843994,-0.307951 0.161065,0.09954 0.47127,0.03291 0.689345,-0.148077 0.300324,-0.249245 0.470792,-0.25477 0.702784,-0.02278 0.501219,0.501219 0.72962,0.35351 0.72962,-0.471847 0,-0.791189 0.450162,-1.331851 0.757185,-0.90941 0.353287,0.486098 1.965425,0.894869 2.331392,0.591146 0.256164,-0.212598 0.351007,-0.211067 0.351007,0.0057 0,0.403957 0.722585,0.378182 0.858858,-0.03064 0.08584,-0.257511 0.258385,-0.259646 0.80635,-0.01 0.749221,0.341368 1.080971,0.113202 0.820886,-0.56457 -0.0888,-0.231405 -0.03958,-0.420744 0.109384,-0.420744 0.148963,0 0.320931,0.148829 0.382156,0.33073 0.0881,0.261757 0.198138,0.259077 0.527658,-0.01286 0.279781,-0.230878 0.472589,-0.252577 0.587809,-0.06615 0.0943,0.152588 0.391414,0.277432 0.660244,0.277432 0.358519,0 0.451903,-0.141026 0.350401,-0.529167 -0.07737,-0.295855 -0.0081,-0.529167 0.157062,-0.529167 0.162494,0 0.295442,0.178594 0.295442,0.396875 0,0.264584 0.264583,0.396875 0.79375,0.396875 0.529167,0 0.79375,-0.132291 0.79375,-0.396875 0,-0.218281 0.119062,-0.396875 0.264583,-0.396875 0.145521,0 0.264584,0.238125 0.264584,0.529167 0,0.792004 0.439536,0.637789 0.754104,-0.264583 0.345991,-0.992516 0.453504,-0.990452 0.975368,0.01873 0.342533,0.662384 0.490419,0.754152 0.800545,0.496771 0.209219,-0.173638 0.387945,-0.569015 0.397171,-0.878618 0.01646,-0.552595 0.02117,-0.552001 0.256056,0.0324 0.296508,0.737672 0.789064,0.771141 0.973426,0.06615 0.13847,-0.529513 0.870413,-0.757567 0.870413,-0.271198 0,0.145473 0.345853,0.188799 0.793094,0.09935 0.485476,-0.0971 0.956085,-0.02334 1.213318,0.190135 0.380601,0.31587 1.929718,0.526494 3.892595,0.529254 0.4068,5.29e-4 0.806228,0.17458 0.887622,0.386688 0.230031,0.599454 0.621705,0.177578 0.621705,-0.669647 0,-1.01516 0.465857,-1.259295 0.787696,-0.412795 0.178311,0.46899 0.454334,0.677378 0.897239,0.677378 0.351835,0 0.708231,0.178594 0.791996,0.396875 0.173082,0.451052 0.962652,0.544934 0.962652,0.114462 0,-0.164214 0.226788,-0.210434 0.541864,-0.110432 0.298024,0.09459 0.709837,0.03258 0.915141,-0.137811 0.301548,-0.250264 0.406302,-0.178202 0.545153,0.375015 0.202914,0.808474 0.643675,0.915051 0.643675,0.155641 0,-0.352776 0.17639,-0.529166 0.529167,-0.529166 0.293981,0 0.529167,0.17639 0.529167,0.396875 0,0.625544 0.413718,0.463833 0.760494,-0.297254 0.295146,-0.647774 0.347962,-0.665443 0.790906,-0.264584 0.261054,0.236252 0.659048,0.429546 0.884433,0.429546 0.225383,0 0.564362,0.186248 0.753282,0.413885 0.213413,0.257146 0.569384,0.357188 0.939983,0.264173 0.470172,-0.118006 0.618411,-0.02355 0.700004,0.446011 0.10147,0.583996 0.10925,0.58211 0.39506,-0.0958 0.35867,-0.850725 0.98161,-1.123989 1.40347,-0.615669 0.17398,0.209632 0.61055,0.381148 0.97016,0.381148 0.43008,0 0.70092,0.180068 0.79143,0.52619 0.1718,0.656947 0.60661,0.428845 0.60661,-0.318227 0,-0.503256 0.0428,-0.517771 0.46302,-0.156896 0.25466,0.218718 0.67138,0.471559 0.92604,0.561872 0.25467,0.09031 0.46302,0.277291 0.46302,0.415512 0,0.138219 0.41672,0.508852 0.92605,0.823632 0.57333,0.354344 0.93513,0.790845 0.9499,1.146059 0.0182,0.437711 0.08,0.380444 0.26058,-0.241535 0.44557,-1.534515 1.91701,-2.261077 1.63953,-0.809559 -0.15399,0.805558 0.43658,1.231966 0.63824,0.460824 0.175,-0.669205 0.93043,-0.750358 0.86353,-0.09277 -0.0823,0.808842 0.004,0.933233 0.41072,0.595313 0.21828,-0.181158 0.39687,-0.605428 0.39687,-0.942824 0,-0.805143 0.44451,-1.063631 0.66024,-0.383935 0.093,0.293156 0.32605,0.533009 0.51779,0.533009 0.47318,0 1.27821,1.275032 1.09934,1.741167 -0.14605,0.380606 0.14126,0.514509 0.4473,0.208468 0.2432,-0.243197 2.03783,-0.316227 2.03783,-0.08292 0,0.108725 0.41046,0.439864 0.91214,0.735859 0.90153,0.531918 0.91965,0.53226 1.55895,0.02939 l 0.64681,-0.508783 1.0416,1.010838 c 0.57288,0.555961 1.11777,1.209342 1.21087,1.451954 0.23322,0.607743 0.90805,0.554305 1.11192,-0.08805 0.0924,-0.291041 0.33852,-0.529166 0.547,-0.529166 0.46911,0 0.46552,0.212799 -0.0178,1.058333 -0.52056,0.910624 -0.48748,1.119402 0.11749,0.74159 0.42146,-0.263207 0.60443,-0.239718 1.01302,0.130051 0.27426,0.2482 0.80868,0.451276 1.18759,0.451276 0.41992,0 0.75028,0.180808 0.84601,0.463021 0.21336,0.628999 1.37359,1.918229 1.72629,1.918229 0.15707,0 0.35411,-0.178594 0.43787,-0.396875 0.21123,-0.550434 0.62485,-0.497891 0.62485,0.07937 0,0.261937 0.13783,0.614079 0.30629,0.782537 0.23199,0.231992 0.22228,0.407503 -0.04,0.723566 -0.29192,0.351748 -0.25742,0.500087 0.21968,0.944579 0.62176,0.57926 0.98564,1.645568 0.7124,2.087668 -0.0959,0.155197 0.0715,0.594738 0.37197,0.97676 0.3005,0.382024 0.54636,0.892841 0.54636,1.135155 0,0.242313 0.1098,0.553677 0.24399,0.691922 0.37126,0.382458 0.65553,2.235729 0.34293,2.235729 -0.68105,0 -0.56892,0.917906 0.19767,1.618081 0.84776,0.774303 0.98389,1.149255 0.52109,1.43528 -0.18542,0.114599 -0.13198,0.339741 0.15623,0.65822 0.35482,0.392064 0.38668,0.651023 0.16767,1.362794 -0.14871,0.483312 -0.40562,1.712188 -0.5709,2.730834 -0.50768,3.128949 -0.54306,3.244633 -1.21336,3.967905 -0.81193,0.876081 -1.25454,0.748621 -1.45071,-0.417761 -0.0837,-0.497371 -0.34177,-1.265613 -0.57359,-1.707205 -0.23182,-0.44159 -0.5092,-1.275027 -0.6164,-1.852083 -0.28019,-1.508173 -1.08954,-3.282588 -1.58377,-3.472241 -0.23546,-0.09036 -0.62137,0.03397 -0.86689,0.279275 -0.36408,0.363773 -0.43563,0.944581 -0.4037,3.277328 0.0213,1.559359 0.0809,3.311448 0.13229,3.893532 0.0809,0.916016 0.0172,1.069215 -0.47419,1.139261 -0.31223,0.04451 -0.73611,0.282633 -0.94197,0.529167 -0.42921,0.514003 -1.1639,2.828594 -1.42489,4.488997 -0.0977,0.621689 -0.2811,1.194263 -0.4075,1.272387 -0.5841,0.360989 -0.11439,0.639979 1.07747,0.639979 1.59187,0 1.92719,0.41002 0.99268,1.213845 -0.77473,0.666395 -1.62745,0.803788 -6.90452,1.112478 -3.05444,0.178673 -3.47673,0.150288 -4.01049,-0.269561 -0.38419,-0.302212 -1.05265,-0.469526 -1.87775,-0.470008 -3.37498,-0.0019 -5.99139,-0.53058 -8.42493,-1.702165 -4.439248,-2.137198 -5.331839,-3.263413 -8.610982,-10.864797 -0.753311,-1.74625 -1.512985,-3.3273 -1.688166,-3.513442 -0.251883,-0.267642 -0.619336,-0.275243 -1.756558,-0.03633 -1.741641,0.365884 -2.298761,0.815821 -2.528856,2.042332 -0.09631,0.513395 -0.441317,1.325716 -0.766672,1.805154 -0.325358,0.479441 -0.79547,1.680152 -1.0447,2.668249 -0.249227,0.9881 -0.667885,2.399358 -0.930351,3.136133 -0.351984,0.988062 -0.405167,1.468323 -0.202669,1.830167 0.150998,0.26982 0.298506,1.276083 0.327793,2.236142 0.02929,0.960062 0.217609,2.008749 0.418494,2.330416 0.267636,0.428553 0.286758,0.663339 0.07155,0.878551 -0.21521,0.21521 -0.592347,0.105172 -1.411214,-0.411757 -0.995082,-0.628166 -1.100587,-0.790075 -0.963035,-1.477833 0.08496,-0.42481 0.03366,-1.090144 -0.114001,-1.478524 l -0.268476,-0.706143 -1.113994,1.072232 c -1.418314,1.365141 -1.85665,1.581655 -4.788551,2.365311 -3.374969,0.902078 -5.297143,1.809403 -5.072644,2.394442 0.114578,0.298585 -0.02331,0.602438 -0.403495,0.88922 l -0.577546,0.435644 0.832713,0.290285 c 0.944036,0.329094 1.35319,1.044914 0.798144,1.396365 -0.203107,0.128606 -1.053893,0.235654 -1.890638,0.237882 -0.836745,0.0021 -1.521354,0.123113 -1.521354,0.268634 0,0.145521 0.635,0.264583 1.41111,0.264583 2.281526,0 2.283727,0.678503 0.0052,1.603288 -1.023125,0.415258 -1.351079,0.658196 -1.104916,0.818488 0.270185,0.175935 0.20003,0.344128 -0.307438,0.737076 -0.361627,0.280017 -0.573704,0.592926 -0.471278,0.695352 0.229512,0.229513 1.525659,-0.588328 1.525659,-0.96266 0,-0.149191 0.372017,-0.427678 0.826706,-0.61886 0.921774,-0.387575 2.879506,-0.06651 2.87491,0.471479 -0.0013,0.164201 -1.071449,0.804561 -2.377877,1.423025 -2.117849,1.00259 -2.569279,1.120573 -4.164637,1.088448 -0.98412,-0.01982 -1.519655,-0.08786 -1.190075,-0.15121 z m 2.178888,-2.458593 c 0.483651,-0.312557 0.06591,-0.312557 -0.661458,0 -0.348917,0.149934 -0.39398,0.232344 -0.132292,0.241935 0.218282,0.008 0.575469,-0.100869 0.79375,-0.241935 z m -2.796714,-2.351169 c 0.215889,-0.349316 -0.761,-0.528537 -1.985622,-0.364281 -0.724164,0.09713 -0.964334,0.218361 -0.728633,0.367784 0.467543,0.296405 2.530547,0.29374 2.714255,-0.0035 z m -5.545866,-6.63139 c 0.228071,-0.369025 -0.740624,-0.803825 -1.404228,-0.63029 -1.013444,0.265022 -0.585438,0.815501 0.669213,0.860711 0.318834,0.01148 0.649592,-0.0922 0.735015,-0.230421 z m 14.074149,-0.945166 c 3.547721,-0.667723 5.260724,-1.93721 6.739075,-4.994251 1.212916,-2.50816 1.325179,-3.315956 0.288385,-2.075119 -0.396269,0.474255 -0.958612,0.863002 -1.249653,0.863881 -0.291042,7.93e-4 -1.005417,0.17055 -1.5875,0.377049 -1.998901,0.709121 -5.396656,-0.02172 -7.476628,-1.608195 -0.97282,-0.742008 -1.783636,-2.165795 -2.053961,-3.606747 -0.285046,-1.519434 -0.799488,-1.765713 -1.659773,-0.794586 -0.51085,0.57667 -1.330444,1.005519 -2.861607,1.497327 -1.180144,0.379061 -2.341004,0.6892 -2.579687,0.6892 -0.572233,0 -0.540576,0.507399 0.08223,1.317961 0.505598,0.658019 0.510778,1.587211 0.01553,2.78308 -0.48905,1.180876 -0.612682,1.602973 -0.561848,1.91823 0.02933,0.181901 -0.130484,0.330729 -0.355145,0.330729 -0.22466,0 -0.407905,0.148828 -0.407209,0.330729 0.0021,0.572452 1.804468,2.322605 2.841191,2.759017 2.087517,0.878744 6.793574,0.970764 10.826612,0.211695 z m 37.395511,-0.900059 c 1.54554,-0.138703 2.97207,-0.435007 3.70417,-0.769387 0.65485,-0.299096 1.8631,-0.836041 2.68501,-1.19321 2.67615,-1.162947 3.42307,-3.343577 3.4906,-10.190792 0.0332,-3.362386 -0.042,-4.321421 -0.40073,-5.113269 -0.86289,-1.904672 -3.41602,-2.954464 -8.15613,-3.353625 -4.13864,-0.348512 -9.26039,0.14497 -10.79689,1.04028 -0.48126,0.28043 -1.15812,0.509871 -1.50413,0.509871 -1.46119,0 -3.419534,1.362937 -4.258011,2.963423 -0.890003,1.698837 -0.266634,4.758886 1.929556,9.471993 1.550025,3.326411 3.079775,4.86137 5.905705,5.925799 2.31123,0.870561 3.90189,1.022927 7.40085,0.708917 z m -9.4844,-6.65498 c -1.41809,-0.277998 -2.5991,-0.949904 -3.28337,-1.868001 -0.473002,-0.634624 -0.495735,-0.879004 -0.25166,-2.705526 0.32463,-2.429417 1.02056,-3.657994 2.66161,-4.698714 1.03579,-0.656886 1.46228,-0.761661 3.10032,-0.761661 3.12137,0 5.00859,0.9398 5.84439,2.910417 0.74902,1.765982 0.0622,3.778924 -1.86965,5.479383 -1.72599,1.519277 -3.89932,2.095442 -6.20164,1.644102 z m 6.78579,-5.212688 c 0.10943,-1.864736 -0.46702,-2.439964 -2.44514,-2.439964 -0.79178,0 -1.50123,0.09971 -1.57655,0.221586 -0.0753,0.121875 0.32557,0.673219 0.89086,1.225211 0.79649,0.777759 1.18069,0.974397 1.70715,0.873757 0.82281,-0.157289 1.46676,0.44081 0.989,0.918576 -0.40562,0.405614 -0.39105,0.80165 0.0245,0.664726 0.19217,-0.06333 0.36403,-0.676606 0.41024,-1.463892 z m -25.57892,2.706698 c 0.77819,-1.759228 0.983602,-5.523352 0.371774,-6.812682 -0.577427,-1.21684 -1.8098,-1.993668 -3.479168,-2.193097 -0.710112,-0.08484 -1.848966,-0.382331 -2.530787,-0.661107 -2.266977,-0.926888 -9.856544,-0.487637 -12.160534,0.703802 -0.400796,0.207262 -1.015637,0.376839 -1.366308,0.376839 -0.917863,0 -3.898061,2.086361 -4.535231,3.175 -0.418626,0.715245 -0.542004,1.387787 -0.542004,2.954514 0,1.115658 0.08976,2.118239 0.19948,2.227953 0.109715,0.109715 0.466902,-0.04899 0.79375,-0.352681 0.404886,-0.376201 1.333817,-0.67872 2.914907,-0.949286 2.635104,-0.450932 4.257841,-1.26071 5.892485,-2.940465 1.587201,-1.631005 3.738181,-2.358914 6.828819,-2.310926 2.982463,0.04631 3.64956,0.310914 4.67079,1.852692 0.821304,1.23994 1.850811,4.127148 1.850811,5.190513 0,0.538441 0.195363,0.942269 0.455851,0.942269 0.05669,0 0.342603,-0.541502 0.635365,-1.203338 z M 58.577345,64.154666 c 0.616902,-0.236728 0.508672,-0.866328 -0.176797,-1.028465 -0.732624,-0.173289 -2.113328,0.186862 -2.246361,0.585957 -0.153074,0.459222 1.56296,0.772597 2.423158,0.442508 z m 67.983275,-2.747351 c 0.46159,-0.446712 -0.16126,-0.796216 -1.41892,-0.796216 -1.43731,0 -1.93094,0.415676 -1.16491,0.980942 0.5146,0.379733 2.1191,0.26502 2.58383,-0.184726 z M 93.391694,60.643457 c 1.236927,-0.150281 3.796771,-0.701212 5.688542,-1.224296 1.891774,-0.523081 4.186134,-1.059878 5.098594,-1.192879 0.91245,-0.133003 2.5198,-0.414978 3.57187,-0.626613 1.05208,-0.211635 3.28005,-0.457988 4.95104,-0.547457 1.671,-0.08947 3.15309,-0.277585 3.29355,-0.418042 0.16411,-0.16411 -0.047,-0.567362 -0.59078,-1.128381 -0.46538,-0.480156 -0.84615,-1.031746 -0.84615,-1.225759 0,-0.254207 -0.25426,-0.311492 -0.91015,-0.205055 -0.78727,0.127757 -0.92124,0.07028 -0.99219,-0.425699 -0.0473,-0.330536 -0.30616,-0.610171 -0.6112,-0.66022 -1.29825,-0.213011 -2.18219,-0.84152 -2.34775,-1.66932 -0.15638,-0.781899 -0.22208,-0.822907 -1.09213,-0.681717 -0.69015,0.111995 -0.92575,0.05557 -0.92575,-0.22171 0,-0.239054 -0.1582,-0.311227 -0.4428,-0.202015 -0.35232,0.135197 -0.40261,0.06591 -0.24606,-0.339032 0.10822,-0.279926 0.26653,-0.85489 0.35182,-1.277699 0.18746,-0.929336 -0.35118,-0.733883 -0.73106,0.265279 -0.26749,0.703554 -0.78398,0.860928 -0.78398,0.238882 0,-0.425133 -0.31443,-0.522492 -0.64087,-0.198438 -0.10995,0.109141 -0.49794,0.198438 -0.8622,0.198438 -0.55004,0 -0.74676,0.221525 -1.16059,1.306941 -0.69922,1.83397 -0.98882,2.073762 -2.02991,1.680795 -0.80706,-0.304631 -0.88814,-0.270362 -2.037035,0.861044 -0.658085,0.648067 -1.330475,1.501174 -1.4942,1.895792 -0.291343,0.702215 -1.813343,2.060636 -2.308775,2.060636 -0.137575,0 -0.395698,-0.351412 -0.573603,-0.780918 -0.269473,-0.650565 -0.246989,-0.981175 0.134704,-1.98062 0.251995,-0.659837 0.621234,-1.335035 0.820534,-1.500436 0.1993,-0.165405 0.362363,-0.458825 0.362363,-0.652045 0,-0.19322 0.526447,-0.791366 1.169884,-1.329214 0.643438,-0.537845 1.229913,-1.20745 1.303282,-1.488011 0.07337,-0.280562 0.380357,-0.574691 0.682199,-0.653624 0.301839,-0.07893 0.548801,-0.244504 0.548801,-0.367932 0,-0.361942 -0.983948,-0.784135 -1.429242,-0.613262 -0.225083,0.08637 -0.593394,-0.02711 -0.818467,-0.252185 -0.369247,-0.369245 -0.518544,-0.352041 -1.528154,0.176075 -0.96529,0.504933 -1.182098,0.784656 -1.578981,2.037175 -0.257545,0.812789 -0.769048,1.722549 -1.162031,2.066795 -0.689684,0.60415 -0.696029,0.639742 -0.362143,2.031527 0.206277,0.859861 0.262046,1.81401 0.141901,2.427785 -0.108863,0.556149 -0.274659,1.537443 -0.368429,2.180653 -0.161235,1.105956 -0.831954,1.878354 -0.831954,0.958078 0,-0.236551 -0.118988,-0.573895 -0.264416,-0.749655 -0.145431,-0.175757 -0.694809,-0.974405 -1.220841,-1.774769 -0.878787,-1.337088 -0.930315,-1.519637 -0.634812,-2.248959 0.640207,-1.580075 0.620339,-1.951529 -0.159242,-2.977147 -0.414547,-0.545383 -1.005271,-1.229728 -1.31272,-1.520769 -0.307451,-0.291042 -0.639318,-0.856589 -0.737483,-1.256771 -0.142873,-0.58243 -0.329386,-0.727604 -0.934797,-0.727604 -0.41597,0 -0.904531,0.178593 -1.085689,0.396875 -0.181157,0.218281 -0.612455,0.396875 -0.958437,0.396875 -0.545476,0 -0.629063,0.12614 -0.629063,0.949298 v 0.949299 l 1.034405,-0.174763 c 0.899556,-0.151979 1.057388,-0.102354 1.210693,0.380667 0.09696,0.305488 0.452538,0.736438 0.790178,0.957667 0.619594,0.405974 0.768705,0.914001 1.100916,3.750852 0.133551,1.140423 0.09033,1.389063 -0.241467,1.389063 -0.502354,0 -2.307225,-1.569159 -2.307225,-2.005907 0,-0.532913 -2.215949,-3.011339 -2.696977,-3.016432 -0.246409,-0.0026 -0.625166,0.248168 -0.841677,0.557286 -0.321662,0.459232 -0.560353,0.530757 -1.305036,0.391054 -0.815748,-0.153035 -0.928891,-0.280532 -1.078341,-1.215138 -0.16532,-1.033849 -0.725408,-1.59003 -1.6012,-1.59003 -0.465328,0 -0.587201,1.18481 -0.149686,1.455209 0.145521,0.08994 0.264584,0.379624 0.264584,0.643747 0,0.53604 1.159668,2.773211 1.860714,3.589586 0.958014,1.115621 1.129503,1.722239 0.639831,2.263317 -0.441251,0.487577 -0.463873,0.484476 -0.947129,-0.129886 -0.272296,-0.346168 -0.495083,-1.013116 -0.495083,-1.482106 0,-0.55404 -0.327223,-1.308182 -0.934233,-2.153092 -0.513826,-0.715211 -0.860751,-1.419275 -0.770943,-1.56459 0.259993,-0.420679 -0.622806,-1.567685 -1.073476,-1.394746 -0.495704,0.19022 -0.495466,1.079913 5.3e-4,1.947561 0.500139,0.874903 0.489172,0.99032 -0.125342,1.319197 -0.434048,0.232296 -0.696322,0.122192 -1.553424,-0.652148 -0.567163,-0.512397 -1.146834,-0.931632 -1.288156,-0.931632 -0.141324,0 -0.245956,0.504425 -0.232515,1.120944 0.01963,0.900526 0.128487,1.140664 0.553601,1.221232 0.511468,0.09694 0.913619,0.489046 0.92199,0.89897 0.0067,0.326546 -0.870386,0.222091 -1.679839,-0.200068 -0.91245,-0.475876 -1.49111,-0.507531 -1.49111,-0.08157 0,0.430239 1.072994,1.538407 1.489578,1.538407 0.186454,0 0.765902,0.2897 1.287666,0.643778 1.042593,0.707523 3.234423,1.094264 4.920205,0.868154 0.644896,-0.0865 1.33926,0.0039 1.801717,0.23463 0.413843,0.206452 2.283995,0.680162 4.155896,1.052687 1.8719,0.372528 3.440009,0.713875 3.484681,0.75855 0.117732,0.117731 2.232708,-0.03602 4.820674,-0.350441 z M 74.2535,54.878459 c -0.09701,-0.09701 -0.176389,-0.299418 -0.176389,-0.449792 0,-0.165788 0.123235,-0.150167 0.313089,0.03969 0.172201,0.172201 0.251576,0.374607 0.17639,0.449791 -0.07519,0.07519 -0.216078,0.05733 -0.31309,-0.03969 z m -5.150556,3.298473 c -0.246944,-0.246944 -0.388057,-0.246944 -0.635,0 -0.246944,0.246944 -0.17639,0.3175 0.3175,0.3175 0.49389,0 0.564443,-0.07056 0.3175,-0.3175 z m 1.82186,-0.231921 c -0.482489,-0.401703 -0.688597,-0.451188 -0.842439,-0.202268 -0.302726,0.48982 -0.03046,0.752774 0.769215,0.742886 l 0.711989,-0.0088 -0.638765,-0.531816 z m 3.505718,34.525273 c 0.994741,-0.520171 1.874812,-0.879573 1.955711,-0.798674 0.19047,0.190468 -1.016815,1.198343 -1.449227,1.209852 -0.181901,0.0048 -0.330729,0.127866 -0.330729,0.273386 0,0.145521 -0.446484,0.263822 -0.992187,0.262893 l -0.992188,-0.0016 1.80862,-0.945766 z m 2.490859,0.773919 c 0.181901,-0.0734 0.479558,-0.0734 0.661459,0 0.181901,0.0734 0.03307,0.133454 -0.330729,0.133454 -0.363802,0 -0.512631,-0.06006 -0.33073,-0.133454 z m 2.384336,-0.01191 c 0.329117,-0.06329 0.805367,-0.06088 1.058333,0.0053 0.252965,0.06622 -0.01633,0.118004 -0.598398,0.115067 -0.582083,-0.0029 -0.789053,-0.05712 -0.459935,-0.120407 z m 5.222435,-0.07745 c 0.717871,-0.182665 0.731782,-0.204967 0.145521,-0.23328 -0.886994,-0.04283 -0.360214,-0.541695 0.715812,-0.677876 0.451787,-0.05718 1.166127,-0.358804 1.587429,-0.670285 0.516128,-0.381592 1.211955,-0.582832 2.133113,-0.616923 0.765106,-0.02832 1.368025,-0.175763 1.369182,-0.334841 0.0011,-0.156334 -0.891657,-1.136973 -1.983989,-2.179196 -2.149494,-2.050891 -3.379775,-4.050517 -2.830219,-4.600072 0.245449,-0.245449 0.404834,-0.20093 0.710935,0.19857 0.387054,0.50515 0.404027,0.502856 0.892453,-0.120708 l 0.497898,-0.635651 3.267332,0.262432 c 2.242153,0.180091 3.550074,0.175657 4.168452,-0.01413 0.809583,-0.248467 0.954398,-0.210767 1.425591,0.371131 0.338162,0.417611 0.740471,0.61939 1.132523,0.568013 0.334428,-0.04383 0.690229,0.05328 0.790668,0.215797 0.169301,0.273939 -0.09509,0.721389 -1.867009,3.159635 -1.065922,1.466763 -1.090885,2.016528 -0.132228,2.91205 1.094981,1.022863 1.41066,1.104225 4.346354,1.120206 2.94336,0.01603 3.46361,0.214214 2.62155,0.998701 -0.56417,0.525611 -0.854,0.540118 -10.182909,0.509707 -5.281213,-0.01722 -9.245021,-0.122195 -8.808459,-0.23328 z m -6.940277,-0.447937 c 0.257431,-0.06708 0.614619,-0.06267 0.79375,0.0098 0.179131,0.07248 -0.03149,0.127363 -0.468056,0.121971 -0.436563,-0.0054 -0.583126,-0.06469 -0.325694,-0.131773 z m 35.884735,-1.274654 c -1.41974,-0.38931 -2.35383,-0.85028 -2.35383,-1.161608 0,-0.224811 1.56281,0.0093 2.51354,0.376452 0.43523,0.168098 0.47046,0.141105 0.19844,-0.152061 -0.53365,-0.57513 -0.38817,-0.779775 0.5543,-0.779775 0.54902,0 1.06686,0.200906 1.36393,0.529167 0.46898,0.518218 0.46213,0.529166 -0.3311,0.529166 -0.67973,0 -0.78773,0.0851 -0.67161,0.529167 0.0761,0.291042 0.0947,0.51439 0.0414,0.496329 -0.0534,-0.01807 -0.64513,-0.183136 -1.31505,-0.366837 z m 2.80554,-1.909286 c -0.43656,-0.06215 -0.91281,-0.238342 -1.05833,-0.39153 -0.18436,-0.194072 0.12228,-0.228748 1.01132,-0.114372 1.44808,0.186301 2.64628,0.705157 1.50222,0.650508 -0.3638,-0.01738 -1.01864,-0.08245 -1.45521,-0.144606 z m 10.12032,-13.322649 c -0.66989,-0.390173 -0.56827,-0.955334 0.19812,-1.101839 0.83444,-0.159512 1.59815,0.369705 1.37452,0.952479 -0.18756,0.488786 -0.8774,0.554302 -1.57264,0.14936 z m 3.38164,-1.817616 c -0.20466,-0.331147 0.85327,-0.888413 1.33538,-0.703411 0.20691,0.0794 0.37621,0.326692 0.37621,0.549543 0,0.454091 -1.44572,0.584059 -1.71159,0.153868 z M 90.930434,69.632237 c -0.351705,-0.705009 -0.352205,-0.834724 -0.0043,-1.123432 0.577908,-0.479621 1.274969,0.06221 1.274969,0.991047 0,1.073793 -0.761423,1.153123 -1.270635,0.132385 z m 8.112427,-36.672089 c -0.290989,-0.7583 0.411477,-3.305299 0.911603,-3.305299 0.106786,0 0.167726,0.625078 0.135426,1.389062 -0.0323,0.763985 -0.0643,1.597422 -0.0712,1.852084 -0.0152,0.566614 -0.764155,0.615849 -0.975859,0.06415 z m 6.784249,-0.322264 c 0,-0.275355 0.18069,-0.731761 0.40154,-1.014236 0.37897,-0.484722 0.39756,-0.462684 0.33073,0.392075 -0.0738,0.944352 -0.73227,1.503779 -0.73227,0.622161 z M 92.862528,31.010077 c 0,-0.41879 0.188719,-1.213106 0.419375,-1.765145 0.319505,-0.764685 0.476062,-0.914147 0.657407,-0.627624 0.371899,0.587588 0.288449,1.545718 -0.207787,2.38578 -0.575644,0.97449 -0.868995,0.976849 -0.868995,0.007 z m -11.510839,0.229904 c -0.254151,-0.411225 0.123516,-1.320549 0.54846,-1.320549 0.419598,0 0.445604,0.121548 0.212281,0.992188 -0.169294,0.63172 -0.488186,0.769364 -0.760741,0.328361 z m 2.779588,-0.233908 c 0,-0.129952 0.178594,-0.304809 0.396875,-0.388571 0.241753,-0.09277 0.396875,-4.23e-4 0.396875,0.236276 0,0.213714 -0.178593,0.388571 -0.396875,0.388571 -0.218281,0 -0.396875,-0.106324 -0.396875,-0.236276 z m 2.127758,-0.491328 c 0.0061,-0.400183 0.226031,-1.131025 0.488739,-1.624094 0.467529,-0.877496 0.481229,-0.883102 0.646755,-0.264583 0.264872,0.989757 0.205793,1.95182 -0.141168,2.298781 -0.548235,0.548234 -1.006054,0.359409 -0.994326,-0.410104 z m 8.88463,0 c 0.249197,-1.038751 0.364696,-1.073664 0.364696,-0.110243 0,0.460816 -0.12133,0.837847 -0.269624,0.837847 -0.160062,0 -0.198694,-0.295662 -0.09507,-0.727604 z M 77.516694,30.82808 c 0,-0.415816 0.587912,-1.168155 0.807024,-1.032735 0.483071,0.298554 0.275371,1.182421 -0.277857,1.182421 -0.291042,0 -0.529167,-0.06736 -0.529167,-0.149686 z m 1.743072,-0.07723 c -0.231619,-0.374768 0.542883,-2.683502 0.900224,-2.683502 0.352155,0 0.487243,1.371495 0.212667,2.159142 -0.252643,0.724733 -0.822973,0.993455 -1.112891,0.52436 z m -5.447239,-0.648557 c 0,-0.335989 0.17009,-0.842005 0.377979,-1.124479 0.327951,-0.445616 0.399417,-0.458348 0.539964,-0.0962 0.197046,0.507727 -0.270465,1.831564 -0.646811,1.831564 -0.149122,0 -0.271132,-0.2749 -0.271132,-0.610888 z m 11.1125,-0.828705 c 0,-0.22687 0.119063,-0.41249 0.264584,-0.41249 0.145521,0 0.264583,0.112036 0.264583,0.248968 0,0.136933 -0.119062,0.322553 -0.264583,0.41249 -0.145521,0.08994 -0.264584,-0.0221 -0.264584,-0.248968 z m -2.910416,-0.544782 c 0,-0.218281 0.119062,-0.396875 0.264583,-0.396875 0.145521,0 0.264583,0.178594 0.264583,0.396875 0,0.218281 -0.119062,0.396875 -0.264583,0.396875 -0.145521,0 -0.264583,-0.178594 -0.264583,-0.396875 z"
         id="path293"
         sodipodi:nodetypes="cssssssssssssssssssssssssssssssssssssssssssssssssssssssssssssssssssssscsssssssssssssssssssssssssssscssscsssssssscssssssssssssssssssssssssssssssssssssssssscssssssssssssssscsssscsscsssssssscssccsssssssssssssssscsssssssssscssssssssssssssssssssssscssssssccsssssssssssssssssssssssssssssssssssssssssssssssssssssssssssssssssssssssssssssscssssssssssssssssssssssssssssssssssssssssssssssssssccscsssccccssssssssssssssssssscsssssssssssssssssssssssssssssssssssssssssssssssscsssssssssssssssssssssssssssssssssssssssssssssssssssssss" /></g></g></svg>
